<?xml version="1.0" encoding="UTF-8"?>
<svg version="1.1" xmlns="http://www.w3.org/2000/svg" width="512" height="512">
<path d="M0 0 C168.96 0 337.92 0 512 0 C512 168.96 512 337.92 512 512 C343.04 512 174.08 512 0 512 C0 343.04 0 174.08 0 0 Z " fill="#F4F4F4" transform="translate(0,0)"/>
<path d="M0 0 C8.01061028 6.05680289 8.01061028 6.05680289 9.078125 11.62890625 C9.30725187 17.64348655 8.5929115 21.43292244 4.5625 25.9375 C3.9025 26.2675 3.2425 26.5975 2.5625 26.9375 C3.11486328 26.96666504 3.66722656 26.99583008 4.23632812 27.02587891 C17.75092505 27.81805598 29.38543957 29.84896978 41.5625 35.9375 C43.93652501 36.00866382 46.31250677 36.02159085 48.6875 36 C49.96882813 35.99097656 51.25015625 35.98195312 52.5703125 35.97265625 C53.55773437 35.96105469 54.54515625 35.94945312 55.5625 35.9375 C55.57667969 36.75992188 55.59085938 37.58234375 55.60546875 38.4296875 C55.89452891 45.19525779 56.70280763 50.1082644 60.0234375 55.9921875 C62.09882884 59.96387549 63.69654534 64.07412955 65.3125 68.25 C65.77100342 69.41631958 65.77100342 69.41631958 66.23876953 70.60620117 C69.27740756 78.48399381 69.27740756 78.48399381 69.5625 81.9375 C68.9025 82.5975 68.2425 83.2575 67.5625 83.9375 C68.531875 84.535625 69.50125 85.13375 70.5 85.75 C73.5625 87.9375 73.5625 87.9375 74.5625 90.9375 C71.0975 91.4325 71.0975 91.4325 67.5625 91.9375 C67.83284634 94.37467258 67.83284634 94.37467258 68.5625 96.9375 C71.37958195 99.25287595 71.37958195 99.25287595 74.5625 98.75 C78.24911919 97.75669703 78.24911919 97.75669703 80.5625 94.9375 C81.30636068 92.62761685 81.98440703 90.29434056 82.5625 87.9375 C82.8925 87.9375 83.2225 87.9375 83.5625 87.9375 C84.27990936 94.75288887 84.27990936 94.75288887 82.296875 98.02734375 C80.79431725 99.81071933 79.35836776 101.44869771 77.5625 102.9375 C76.9025 102.9375 76.2425 102.9375 75.5625 102.9375 C75.418125 103.55625 75.27375 104.175 75.125 104.8125 C74.5625 106.9375 74.5625 106.9375 73.5625 108.9375 C74.284375 109.14375 75.00625 109.35 75.75 109.5625 C79.53730207 111.4140699 81.29106247 113.39672973 83.5625 116.9375 C83.63555303 121.17457546 83.24626349 123.12941588 80.5 126.375 C79.5409375 127.1484375 79.5409375 127.1484375 78.5625 127.9375 C78.62050781 127.28523437 78.67851562 126.63296875 78.73828125 125.9609375 C78.97034618 121.4655082 78.91631845 118.61986415 76.8125 114.5625 C72.85149584 110.54442086 66.90789972 109.18745592 61.5625 107.9375 C60.2425 107.9375 58.9225 107.9375 57.5625 107.9375 C58.89516984 109.9138403 60.25053912 111.86553272 61.625 113.8125 C61.99560547 114.36808594 62.36621094 114.92367187 62.74804688 115.49609375 C65.94244092 119.95213922 68.39993056 120.93910836 73.5625 121.9375 C72.47417071 124.3862409 71.37227644 126.15652234 69.6015625 128.1953125 C67.3687729 131.19802955 66.60977487 133.51934444 65.6875 137.125 C63.19427709 145.75839539 59.33712246 152.95989195 52.5625 158.9375 C51.9025 158.6075 51.2425 158.2775 50.5625 157.9375 C51.09359375 157.380625 51.6246875 156.82375 52.171875 156.25 C58.54659125 149.36344522 62.88998811 143.5207944 63.5625 133.9375 C63.6140625 133.2259375 63.665625 132.514375 63.71875 131.78125 C64.0363941 124.05191035 61.80026086 117.60295426 57.05078125 111.48046875 C52.36713455 106.62471955 47.48389418 105.68945051 40.875 105.5625 C36.60828762 105.61359835 33.44104637 106.13854528 29.5625 107.9375 C29.8925 109.9175 30.2225 111.8975 30.5625 113.9375 C28.9125 114.5975 27.2625 115.2575 25.5625 115.9375 C25.10299585 121.17626424 25.10299585 121.17626424 26.75 125.9375 C29.12245679 127.24644168 30.8960118 127.15370175 33.5625 126.9375 C34.5525 124.9575 34.5525 124.9575 35.5625 122.9375 C34.9025 122.6075 34.2425 122.2775 33.5625 121.9375 C35.3125 121.25 35.3125 121.25 37.5625 120.9375 C39.8125 122.375 39.8125 122.375 41.5625 123.9375 C41.25 127.3125 41.25 127.3125 40.5625 130.9375 C36.98779543 133.32063638 35.77696465 133.58587918 31.5625 132.9375 C26.85364654 130.30814021 24.33030324 127.15427806 22.625 122.0625 C22.24777468 120.69364643 21.88513877 119.32023759 21.5625 117.9375 C19.18637648 121.50168529 19.31686288 123.059725 19.33203125 127.28515625 C19.33396484 128.52974609 19.33589844 129.77433594 19.33789062 131.05664062 C19.35013672 132.35794922 19.36238281 133.65925781 19.375 135 C19.37564453 136.30517578 19.37628906 137.61035156 19.37695312 138.95507812 C19.06561301 145.12949655 19.06561301 145.12949655 20.5625 150.9375 C22.20613134 151.65909424 23.87300386 152.33101421 25.5625 152.9375 C25.2325 153.9275 24.9025 154.9175 24.5625 155.9375 C9.2175 156.4325 9.2175 156.4325 -6.4375 156.9375 C2.49720536 161.10182137 2.49720536 161.10182137 11.5625 163.9375 C11.5625 164.2675 11.5625 164.5975 11.5625 164.9375 C1.53851294 164.76760191 -7.32178915 160.27374709 -14.5625 153.375 C-19.38255645 148.13053606 -23.68620451 142.41980793 -28.02294922 136.77539062 C-30.26876374 133.85745972 -32.53889751 130.95880364 -34.8125 128.0625 C-35.25867676 127.49354004 -35.70485352 126.92458008 -36.16455078 126.33837891 C-39.77279486 121.7510647 -43.44053115 117.21372295 -47.125 112.6875 C-47.6722876 112.01460938 -48.2195752 111.34171875 -48.78344727 110.6484375 C-51.19549185 107.68470381 -53.61168581 104.72462652 -56.0390625 101.7734375 C-56.76867187 100.87882812 -57.49828125 99.98421875 -58.25 99.0625 C-59.18779297 97.92167969 -59.18779297 97.92167969 -60.14453125 96.7578125 C-61.4375 94.9375 -61.4375 94.9375 -61.4375 92.9375 C-62.0975 92.9375 -62.7575 92.9375 -63.4375 92.9375 C-63.4375 92.2775 -63.4375 91.6175 -63.4375 90.9375 C-64.530625 91.55625 -65.62375 92.175 -66.75 92.8125 C-67.36488281 93.16054687 -67.97976562 93.50859375 -68.61328125 93.8671875 C-70.25732289 94.83178581 -71.85150588 95.88017059 -73.4375 96.9375 C-72.13984874 94.15295667 -70.71065368 91.86508387 -68.75 89.50390625 C-68.22059814 88.86074463 -67.69119629 88.21758301 -67.14575195 87.55493164 C-66.58202881 86.8768042 -66.01830566 86.19867676 -65.4375 85.5 C-60.25837544 79.21348969 -55.24886525 72.83318359 -50.36328125 66.31640625 C-48.4375 63.9375 -48.4375 63.9375 -46.4375 62.9375 C-47.0975 64.9175 -47.7575 66.8975 -48.4375 68.9375 C-47.4475 69.9275 -46.4575 70.9175 -45.4375 71.9375 C-39.70375985 65.66153493 -33.99447352 59.37114619 -28.4375 52.9375 C-27.94121094 52.38191406 -27.44492187 51.82632813 -26.93359375 51.25390625 C-24.60742807 48.59637794 -22.85079435 46.51938436 -22.4375 42.9375 C-19.9625 42.4425 -19.9625 42.4425 -17.4375 41.9375 C-18.0975 41.2775 -18.7575 40.6175 -19.4375 39.9375 C-19.4375 38.9475 -19.4375 37.9575 -19.4375 36.9375 C-24.68740666 38.93246453 -28.26751375 41.17434167 -32.4375 44.9375 C-29.88618019 38.9412509 -24.27399234 35.5706464 -18.4375 33.0625 C-17.4475 32.69125 -16.4575 32.32 -15.4375 31.9375 C-16.23414063 31.58558594 -17.03078125 31.23367187 -17.8515625 30.87109375 C-30.40895767 25.02014199 -30.40895767 25.02014199 -33.4375 18.9375 C-34.29393834 15.10182742 -33.94004706 11.97780442 -32.2109375 8.3984375 C-30.21745934 5.63215724 -28.44709038 4.37155165 -25.5 2.6875 C-24.64535156 2.18734375 -23.79070312 1.6871875 -22.91015625 1.171875 C-16.04865748 -2.25345456 -7.234759 -2.23619824 0 0 Z " fill="#EBECEC" transform="translate(291.4375,153.0625)"/>
<path d="M0 0 C-1 2 -1 2 -2.92578125 2.67578125 C-3.71339844 2.88589844 -4.50101563 3.09601563 -5.3125 3.3125 C-9.58140962 4.66307713 -11.7121117 5.99619548 -14 10 C-14.8473075 13.41555881 -15.14308846 16.6457058 -15.20532227 20.1574707 C-15.22526749 21.15813065 -15.24521271 22.15879059 -15.26576233 23.18977356 C-15.29083107 24.79159737 -15.29083107 24.79159737 -15.31640625 26.42578125 C-15.33718735 27.52850876 -15.35796844 28.63123627 -15.37937927 29.76737976 C-15.44464932 33.28235778 -15.50365495 36.79740912 -15.5625 40.3125 C-15.60570665 42.69857523 -15.64932163 45.08464309 -15.69335938 47.47070312 C-15.8003076 53.31372506 -15.90211555 59.15681958 -16 65 C-15.21447754 64.21214111 -14.42895508 63.42428223 -13.61962891 62.61254883 C-11.57783075 60.57626904 -9.53475685 58.59577831 -7.375 56.6875 C-6.80523437 56.17574219 -6.23546875 55.66398437 -5.6484375 55.13671875 C-4 54 -4 54 -1 54 C-1 54.66 -1 55.32 -1 56 C-0.34 56 0.32 56 1 56 C2.68467108 57.96391529 4.25514123 59.9380559 5.8125 62 C6.80594804 63.29139932 7.80079623 64.58172247 8.796875 65.87109375 C9.31958984 66.54897949 9.84230469 67.22686523 10.38085938 67.92529297 C13.05301102 71.34928945 15.80984129 74.70315776 18.5625 78.0625 C22.45051241 82.82114968 26.2734202 87.61377138 30 92.5 C33.84329516 97.52198927 37.7341952 102.50152952 41.6875 107.4375 C42.21021484 108.10007812 42.73292969 108.76265625 43.27148438 109.4453125 C54.08835114 122.86094851 67.37102486 127.56649144 84 130 C84.33 130.99 84.66 131.98 85 133 C72.3963985 136.9666157 55.62617243 133.73051178 44.08203125 128.09765625 C43.39496094 127.73542969 42.70789063 127.37320313 42 127 C41.24074219 126.60683594 40.48148437 126.21367187 39.69921875 125.80859375 C34.85681533 123.21241444 30.31996096 120.40082033 26 117 C26 116.34 26 115.68 26 115 C25.360625 114.731875 24.72125 114.46375 24.0625 114.1875 C22 113 22 113 21 110 C20.34 110 19.68 110 19 110 C17.16888017 107.74489604 15.45014675 105.47654607 13.75 103.125 C12.67215531 101.65899152 11.59266094 100.19419483 10.51171875 98.73046875 C9.94243652 97.95880371 9.3731543 97.18713867 8.78662109 96.39208984 C5.20830741 91.60111998 1.50286529 86.90808768 -2.19042969 82.20556641 C-2.74504883 81.49706543 -3.29966797 80.78856445 -3.87109375 80.05859375 C-4.40202637 79.3816748 -4.93295898 78.70475586 -5.47998047 78.00732422 C-6.97004328 76.03956058 -8.34588309 74.02059989 -9.72265625 71.97265625 C-10.47417969 70.99167969 -11.22570312 70.01070313 -12 69 C-12.99 69 -13.98 69 -15 69 C-15.07453636 73.85633035 -15.12878329 78.71232268 -15.16479492 83.5690918 C-15.17981806 85.21889044 -15.2002426 86.86864958 -15.22631836 88.51831055 C-15.26298899 90.89902536 -15.27979103 93.27920908 -15.29296875 95.66015625 C-15.30845261 96.38960953 -15.32393646 97.11906281 -15.33988953 97.87062073 C-15.34153751 102.9630822 -14.3771012 106.47455033 -12 111 C-8.54729729 113.79948868 -5.37071503 114.49177732 -1 115 C-1 115.66 -1 116.32 -1 117 C-16.84 117 -32.68 117 -49 117 C-47.02 116.01 -47.02 116.01 -45 115 C-44.13375 114.46375 -43.2675 113.9275 -42.375 113.375 C-40 112 -40 112 -38 112 C-36.13276071 106.45287215 -35.71294529 101.59342948 -35.74121094 95.76342773 C-35.7377063 94.86496124 -35.73420166 93.96649475 -35.73059082 93.040802 C-35.72183045 90.0883193 -35.72760202 87.13607864 -35.734375 84.18359375 C-35.73302683 82.12288874 -35.73108503 80.06218403 -35.72857666 78.0014801 C-35.72563321 73.69016481 -35.72989844 69.37893257 -35.73925781 65.06762695 C-35.75065901 59.54741279 -35.74408365 54.02739299 -35.73211288 48.50718594 C-35.72487939 44.25464926 -35.72718895 40.00215852 -35.73236847 35.74962044 C-35.73370047 33.71429483 -35.73207303 31.67896503 -35.72740936 29.64364433 C-35.7223189 26.79804332 -35.73008953 23.95275548 -35.74121094 21.10717773 C-35.73716248 20.27012802 -35.73311401 19.43307831 -35.72894287 18.57066345 C-35.76236824 13.94387567 -36.41453614 10.39815237 -38 6 C-37.67 5.34 -37.34 4.68 -37 4 C-37.99 3.67 -38.98 3.34 -40 3 C-40 2.34 -40 1.68 -40 1 C-35.42850903 0.85619672 -30.8569763 0.71383119 -26.28540039 0.57275391 C-24.73265395 0.52463927 -23.17991927 0.47614297 -21.62719727 0.42724609 C-19.3856099 0.35672424 -17.14398272 0.28760959 -14.90234375 0.21875 C-14.21663803 0.19687622 -13.53093231 0.17500244 -12.82444763 0.15246582 C-8.54803059 0.02277364 -4.27824908 -0.01945764 0 0 Z " fill="#FCFCFC" transform="translate(229,190)"/>
<path d="M0 0 C17.16 0 34.32 0 52 0 C52 1.32 52 2.64 52 4 C51.32453125 4.18175781 50.6490625 4.36351562 49.953125 4.55078125 C49.06109375 4.80214844 48.1690625 5.05351562 47.25 5.3125 C46.36828125 5.55613281 45.4865625 5.79976562 44.578125 6.05078125 C41.94227495 7.02125331 40.14592674 8.21005644 38 10 C39.4595886 6.1519937 41.33899114 4.78793456 45 3 C47.475 2.505 47.475 2.505 50 2 C37.13 2 24.26 2 11 2 C11.99 2.99 12.98 3.98 14 5 C14.625 8.0625 14.625 8.0625 15 11 C15.495 11.99 15.495 11.99 16 13 C16.10906536 15.89204497 16.15733493 18.76037369 16.16113281 21.65307617 C16.16858017 22.99727127 16.16858017 22.99727127 16.17617798 24.36862183 C16.19082281 27.34341187 16.19760657 30.31814853 16.203125 33.29296875 C16.20887593 35.35842389 16.21463367 37.42387901 16.22039795 39.48933411 C16.23091549 43.82630665 16.23675277 48.16326063 16.24023438 52.50024414 C16.24571111 58.05081117 16.26971847 63.6011319 16.29820633 69.15162182 C16.31685742 73.42135832 16.3220397 77.69103591 16.32357025 81.96080971 C16.32659331 84.00648656 16.33461011 86.05216245 16.34775543 88.0977993 C16.36486227 90.96537175 16.36292393 93.83234801 16.35644531 96.69995117 C16.3656601 97.54126083 16.37487488 98.3825705 16.3843689 99.24937439 C16.34681194 104.57186695 15.40902199 108.24178107 13 113 C12.34 112.67 11.68 112.34 11 112 C11.32742187 111.51015625 11.65484375 111.0203125 11.9921875 110.515625 C13.41772589 106.95730437 13.21154348 103.51796989 13.125 99.75 C13.11597656 99.00492187 13.10695313 98.25984375 13.09765625 97.4921875 C13.07418358 95.66131941 13.03831525 93.83061762 13 92 C12.24976563 92.64066406 11.49953125 93.28132813 10.7265625 93.94140625 C7.38666837 96.46307417 5.15765967 96.9230063 1 97 C-0.9375 95.9375 -0.9375 95.9375 -2 94 C-2.40111303 90.79109575 -2.52233914 88.85223754 -0.8125 86.0625 C1 85 1 85 3.6875 85.3125 C4.450625 85.539375 5.21375 85.76625 6 86 C5.01 86.495 5.01 86.495 4 87 C4.66 88.32 5.32 89.64 6 91 C8.43717258 90.72965366 8.43717258 90.72965366 11 90 C13.08962236 86.86556646 13.25367554 86.12996308 13.1875 82.5625 C13.18105469 81.80066406 13.17460937 81.03882813 13.16796875 80.25390625 C13.00440396 78.05909496 12.58165832 76.11723627 12 74 C12 73.67 12 73.34 12 73 C6.38247622 69.25498414 0.60172568 69.07298603 -6 70 C-12.65672437 72.61744987 -16.5506116 77.15298708 -19.75 83.4375 C-22.71431538 92.10116209 -21.95408987 101.70041947 -18.15625 109.93359375 C-16.695879 112.54351355 -15.04012416 114.81415268 -13 117 C-13.33 117.66 -13.66 118.32 -14 119 C-20.80246832 110.88238781 -23.8741383 102.53030681 -26.09375 92.25 C-26.8113357 89.83269533 -26.8113357 89.83269533 -29.09375 88.6875 C-29.7228125 88.460625 -30.351875 88.23375 -31 88 C-31 87.34 -31 86.68 -31 86 C-29.80375 85.690625 -28.6075 85.38125 -27.375 85.0625 C-22.61833175 83.32287045 -20.85636549 80.4524097 -18.421875 76.15625 C-16.88208731 73.82118734 -15.31242956 72.54161971 -13 71 C-20.12427945 71.99530375 -25.68647997 73.5562618 -32 77 C-32.66 77 -33.32 77 -34 77 C-35.79275866 80.11910856 -36.34290718 82.67682428 -36.625 86.25 C-36.69976562 87.14203125 -36.77453125 88.0340625 -36.8515625 88.953125 C-36.90054688 89.62859375 -36.94953125 90.3040625 -37 91 C-40.0580633 88.61088804 -40.93142525 87.47145142 -41.5 83.5625 C-40.9253295 79.46797271 -39.74789906 77.99770806 -37 75 C-36.505 73.515 -36.505 73.515 -36 72 C-37.27617187 72.01160156 -38.55234375 72.02320313 -39.8671875 72.03515625 C-41.53645687 72.04453417 -43.20572783 72.05363437 -44.875 72.0625 C-45.71675781 72.07087891 -46.55851563 72.07925781 -47.42578125 72.08789062 C-48.23144531 72.09111328 -49.03710938 72.09433594 -49.8671875 72.09765625 C-50.61081543 72.10289307 -51.35444336 72.10812988 -52.12060547 72.11352539 C-54 72 -54 72 -56 71 C-56 70.34 -56 69.68 -56 69 C-49.97568564 65.98784282 -40.49893695 68.00016355 -34 69 C-34.63228516 68.29423828 -34.63228516 68.29423828 -35.27734375 67.57421875 C-35.82519531 66.95160156 -36.37304688 66.32898438 -36.9375 65.6875 C-37.48277344 65.07261719 -38.02804688 64.45773438 -38.58984375 63.82421875 C-41.68015379 59.82650466 -41.07867408 55.79911915 -41 51 C-40.01 50.505 -40.01 50.505 -39 50 C-39.04125 51.0725 -39.0825 52.145 -39.125 53.25 C-39.01046173 56.6861482 -38.9297839 58.25767552 -37 61 C-34.10538099 63.36139302 -34.10538099 63.36139302 -30.4375 62.8125 C-26.74174248 62.35160238 -26.74174248 62.35160238 -25 59 C-25 58.01 -25 57.02 -25 56 C-26.98 56 -28.96 56 -31 56 C-31 54.68 -31 53.36 -31 52 C-28 49.75 -28 49.75 -25 48 C-25.33 47.34 -25.66 46.68 -26 46 C-26.43196854 40.97745049 -25.25510254 37.48439948 -23.3125 32.875 C-22.75519425 31.548183 -22.19790278 30.22136 -21.640625 28.89453125 C-21.36154297 28.2392041 -21.08246094 27.58387695 -20.79492188 26.90869141 C-20.06952088 25.16692698 -19.39889117 23.40260894 -18.734375 21.63671875 C-15.69251069 13.65689471 -12.12996879 7.49356606 -4.6875 3 C-2 2 -2 2 0 2 C0 1.34 0 0.68 0 0 Z " fill="#F1F1F1" transform="translate(178,189)"/>
<path d="M0 0 C1.36125 0.7734375 1.36125 0.7734375 2.75 1.5625 C3.38679688 1.9234375 4.02359375 2.284375 4.6796875 2.65625 C6.40571169 3.65583303 8.11709709 4.68077939 9.8203125 5.71875 C15.7400281 9.29177527 21.26873611 12.34055647 28 14 C28.804375 14.20367187 29.60875 14.40734375 30.4375 14.6171875 C42.39052063 17.21412353 54.10149804 16.65794526 65.9140625 13.75390625 C68.93082582 13.01689952 71.93215641 12.47445629 75 12 C65.92414088 19.41816795 53.14337236 18.64449087 42 19 C42.48726563 19.55945313 42.97453125 20.11890625 43.4765625 20.6953125 C46.0368267 24.5685327 45.51107772 28.51387334 45 33 C43.2559241 38.2322277 40.7589164 40.32310953 36 43 C29.7500652 45.0833116 22.21704261 45.12115399 15.99609375 42.953125 C13.58596382 41.73189672 11.29729449 40.41967637 9 39 C7.67311145 38.32059658 6.34172458 37.64961326 5 37 C5.54723683 40.37462715 6.0549 42.08235 8 45 C7.85359862 49.24564004 4.6743553 51.98277864 2 55 C-2.08851671 53.6371611 -3.54626098 51.47613028 -6 48 C-6 45.16935259 -4.91840808 43.86618925 -3.4375 41.4375 C-1.74600749 39.04095169 -1.74600749 39.04095169 -2 36 C-2.38542969 36.43957031 -2.77085937 36.87914062 -3.16796875 37.33203125 C-9.96065571 43.51641788 -18.97993338 44.54960981 -27.7734375 44.46875 C-32.73412087 43.74806961 -36.73090952 41.96727217 -39.8125 37.9375 C-43.32804045 33.2166314 -43.67517138 29.7927747 -43 24 C-40.11695486 17.75340219 -34.93211385 14.96605693 -29 12 C-26.62597499 11.92883618 -24.24999323 11.91590915 -21.875 11.9375 C-20.59367187 11.94652344 -19.31234375 11.95554687 -17.9921875 11.96484375 C-17.00476563 11.97644531 -16.01734375 11.98804688 -15 12 C-17.31 11.34 -19.62 10.68 -22 10 C-22 9.67 -22 9.34 -22 9 C-13.70344798 9.03840996 -9.08450406 11.98942361 -3.2734375 17.6953125 C-2.85320312 18.12585938 -2.43296875 18.55640625 -2 19 C-1.90912109 17.19402344 -1.90912109 17.19402344 -1.81640625 15.3515625 C-1.73200268 13.77602923 -1.64735459 12.20050904 -1.5625 10.625 C-1.52318359 9.8309375 -1.48386719 9.036875 -1.44335938 8.21875 C-1.11328125 2.2265625 -1.11328125 2.2265625 0 0 Z " fill="#E6E6E7" transform="translate(255,307)"/>
<path d="M0 0 C6.88193458 2.93593295 11.28619926 9.16388462 14.05859375 15.9140625 C15.98972153 27.92996871 13.66400779 37.49490321 6.62109375 47.4140625 C0.0892902 55.86698474 -6.27778635 60.30802402 -16.62890625 62.6640625 C-17.3353125 62.83679688 -18.04171875 63.00953125 -18.76953125 63.1875 C-21.70712427 63.88851652 -24.34880983 64.4140625 -27.37890625 64.4140625 C-27.70890625 63.7540625 -28.03890625 63.0940625 -28.37890625 62.4140625 C-31.15779033 61.79739912 -31.15779033 61.79739912 -34.37890625 61.4140625 C-37.69140625 60.9765625 -37.69140625 60.9765625 -40.37890625 60.4140625 C-40.70890625 59.7540625 -41.03890625 59.0940625 -41.37890625 58.4140625 C-43.10215068 57.69989912 -44.85902557 57.06573401 -46.62890625 56.4765625 C-50.54544142 55.16928657 -53.9375832 53.71874418 -57.37890625 51.4140625 C-57.37890625 51.0840625 -57.37890625 50.7540625 -57.37890625 50.4140625 C-46.81890625 50.0840625 -36.25890625 49.7540625 -25.37890625 49.4140625 C-25.37890625 48.7540625 -25.37890625 48.0940625 -25.37890625 47.4140625 C-26.18328125 47.1253125 -26.98765625 46.8365625 -27.81640625 46.5390625 C-30.37890625 45.4140625 -30.37890625 45.4140625 -31.37890625 43.4140625 C-31.67797766 38.79474983 -31.65700699 34.16691015 -31.69140625 29.5390625 C-31.72041016 28.24613281 -31.74941406 26.95320313 -31.77929688 25.62109375 C-31.78767578 24.37972656 -31.79605469 23.13835937 -31.8046875 21.859375 C-31.81927002 20.72000488 -31.83385254 19.58063477 -31.84887695 18.40673828 C-31.28456322 14.81330567 -30.15946729 13.66451782 -27.37890625 11.4140625 C-27.15847656 12.40986328 -27.15847656 12.40986328 -26.93359375 13.42578125 C-25.39454753 19.60978306 -25.39454753 19.60978306 -21.56640625 24.5390625 C-18.05842497 26.6025809 -16.36787855 26.94592547 -12.37890625 26.4140625 C-11.38890625 26.0840625 -10.39890625 25.7540625 -9.37890625 25.4140625 C-9.12874752 21.99763491 -9.12874752 21.99763491 -9.37890625 18.4140625 C-12.19400618 16.1367124 -12.19400618 16.1367124 -15.37890625 16.4140625 C-15.17265625 17.0328125 -14.96640625 17.6515625 -14.75390625 18.2890625 C-14.56828125 19.3409375 -14.56828125 19.3409375 -14.37890625 20.4140625 C-16.37890625 22.4140625 -16.37890625 22.4140625 -18.75390625 22.7890625 C-21.37890625 22.4140625 -21.37890625 22.4140625 -23.69140625 20.9140625 C-26.14047933 17.28580609 -25.66701277 14.73566025 -25.37890625 10.4140625 C-23.72890625 9.7540625 -22.07890625 9.0940625 -20.37890625 8.4140625 C-20.53359375 7.021875 -20.53359375 7.021875 -20.69140625 5.6015625 C-20.58828125 4.5496875 -20.48515625 3.4978125 -20.37890625 2.4140625 C-14.58191818 -2.14680311 -6.91258569 -1.70260731 0 0 Z " fill="#ECECEC" transform="translate(341.37890625,258.5859375)"/>
<path d="M0 0 C2.1875 1.1015625 2.1875 1.1015625 5.4375 3.1015625 C5.1075 4.0915625 4.7775 5.0815625 4.4375 6.1015625 C4.9325 7.0915625 4.9325 7.0915625 5.4375 8.1015625 C6.00402431 12.82878992 6.08598749 16.10856602 3.4375 20.1640625 C2.7775 20.8034375 2.1175 21.4428125 1.4375 22.1015625 C-0.2125 21.7715625 -1.8625 21.4415625 -3.5625 21.1015625 C-4.125 19.1640625 -4.125 19.1640625 -4.5625 17.1015625 C-4.2325 16.7715625 -3.9025 16.4415625 -3.5625 16.1015625 C-6.85325996 16.48060458 -6.85325996 16.48060458 -9.5625 18.1015625 C-9.81255386 21.05973357 -9.81255386 21.05973357 -9.5625 24.1015625 C-8.9025 24.7615625 -8.2425 25.4215625 -7.5625 26.1015625 C-2.04388974 25.88930826 0.99331856 24.22755453 5.4375 21.1015625 C5.54637507 23.79017181 5.62520594 26.47429408 5.6875 29.1640625 C5.72101563 29.91623047 5.75453125 30.66839844 5.7890625 31.44335938 C5.88813466 37.16477643 4.82687078 40.45006588 1.4375 45.1015625 C0.1175 45.7615625 -1.2025 46.4215625 -2.5625 47.1015625 C19.2175 47.5965625 19.2175 47.5965625 41.4375 48.1015625 C41.4375 47.4415625 41.4375 46.7815625 41.4375 46.1015625 C40.57125 46.1840625 39.705 46.2665625 38.8125 46.3515625 C34.50498045 46.03248698 32.69078253 44.92107403 29.4375 42.1015625 C26.63826751 36.81357359 26.01885219 32.68253075 26.14453125 26.76171875 C26.14877609 25.99476181 26.15302094 25.22780487 26.15739441 24.43760681 C26.1740493 22.01271918 26.21167447 19.58869452 26.25 17.1640625 C26.26506399 15.50977772 26.27874938 13.85547977 26.29101562 12.20117188 C26.32390923 8.16764147 26.37559751 4.13474777 26.4375 0.1015625 C27.7575 -0.2284375 29.0775 -0.5584375 30.4375 -0.8984375 C30.4375 0.0915625 30.4375 1.0815625 30.4375 2.1015625 C29.9425 1.6065625 29.9425 1.6065625 29.4375 1.1015625 C29.36317582 6.13693027 29.30881599 11.17197658 29.27270508 16.20776367 C29.2576466 17.91973434 29.23719545 19.63166661 29.21118164 21.34350586 C29.1746681 23.80852755 29.15774438 26.27303785 29.14453125 28.73828125 C29.12904739 29.49993088 29.11356354 30.26158051 29.09761047 31.04631042 C29.09618036 35.59284116 29.63088439 38.48272085 32.4375 42.1015625 C35.7228573 44.33091209 39.63536024 45.07790949 43.4375 46.1015625 C43.4375 47.4215625 43.4375 48.7415625 43.4375 50.1015625 C32.8775 50.1015625 22.3175 50.1015625 11.4375 50.1015625 C11.4375 51.7515625 11.4375 53.4015625 11.4375 55.1015625 C8.01336401 59.17350801 5.7021427 60.87047651 0.375 61.4140625 C-7.94810148 60.75349889 -15.57322001 56.90888968 -21.5625 51.1015625 C-22.75 48.7265625 -22.75 48.7265625 -23.5625 46.1015625 C-24.77127162 44.11719681 -26.04585443 42.18877712 -27.34375 40.26171875 C-31.65981161 32.61177622 -31.75217564 23.66593147 -29.9453125 15.21484375 C-27.49308932 8.12943783 -22.97062422 3.81565551 -16.671875 -0.0625 C-11.57909241 -2.08075088 -5.1157436 -1.79362962 0 0 Z " fill="#F1F1F1" transform="translate(186.5625,258.8984375)"/>
<path d="M0 0 C0.66 0.33 1.32 0.66 2 1 C2 1.66 2 2.32 2 3 C11.59884143 7.89950794 21.28855804 10.39659207 31.81054688 12.53515625 C39.68020872 14.27755233 46.29312671 16.81844401 51.74829102 22.97216797 C53 25 53 25 52.9375 28.5 C51.93937684 32.22632646 50.95673096 33.61553955 48 36 C48.05800781 35.34773438 48.11601562 34.69546875 48.17578125 34.0234375 C48.40784618 29.5280082 48.35381845 26.68236415 46.25 22.625 C42.28899584 18.60692086 36.34539972 17.24995592 31 16 C29.68 16 28.36 16 27 16 C28.33266984 17.9763403 29.68803912 19.92803272 31.0625 21.875 C31.43310547 22.43058594 31.80371094 22.98617188 32.18554688 23.55859375 C35.37994092 28.01463922 37.83743056 29.00160836 43 30 C41.91167071 32.4487409 40.80977644 34.21902234 39.0390625 36.2578125 C36.8062729 39.26052955 36.04727487 41.58184444 35.125 45.1875 C32.63177709 53.82089539 28.77462246 61.02239195 22 67 C21.01 66.505 21.01 66.505 20 66 C20.53109375 65.443125 21.0621875 64.88625 21.609375 64.3125 C27.98409125 57.42594522 32.32748811 51.5832944 33 42 C33.07734375 40.93265625 33.07734375 40.93265625 33.15625 39.84375 C33.4738941 32.11441035 31.23776086 25.66545426 26.48828125 19.54296875 C21.80463455 14.68721955 16.92139418 13.75195051 10.3125 13.625 C6.04578762 13.67609835 2.87854637 14.20104528 -1 16 C-0.505 18.97 -0.505 18.97 0 22 C-1.65 22.66 -3.3 23.32 -5 24 C-5.45950415 29.23876424 -5.45950415 29.23876424 -3.8125 34 C-1.44004321 35.30894168 0.3335118 35.21620175 3 35 C3.66 33.68 4.32 32.36 5 31 C4.34 30.67 3.68 30.34 3 30 C4.75 29.3125 4.75 29.3125 7 29 C9.25 30.4375 9.25 30.4375 11 32 C10.6875 35.375 10.6875 35.375 10 39 C6.42529543 41.38313638 5.21446465 41.64837918 1 41 C-3.70885346 38.37064021 -6.23219676 35.21677806 -7.9375 30.125 C-8.31472532 28.75614643 -8.67736123 27.38273759 -9 26 C-11.37612352 29.56418529 -11.24563712 31.122225 -11.23046875 35.34765625 C-11.22756836 37.21454102 -11.22756836 37.21454102 -11.22460938 39.11914062 C-11.21236328 40.42044922 -11.20011719 41.72175781 -11.1875 43.0625 C-11.18685547 44.36767578 -11.18621094 45.67285156 -11.18554688 47.01757812 C-11.49688699 53.19199655 -11.49688699 53.19199655 -10 59 C-8.35636866 59.72159424 -6.68949614 60.39351421 -5 61 C-5.33 61.99 -5.66 62.98 -6 64 C-16.56 64 -27.12 64 -38 64 C-38 62.68 -38 61.36 -38 60 C-35.69 59.34 -33.38 58.68 -31 58 C-30.92593483 53.4793661 -30.87143955 48.959084 -30.83520508 44.43798828 C-30.82010289 42.89951426 -30.79961954 41.36108339 -30.77368164 39.82275391 C-30.73735926 37.61349859 -30.72028881 35.40481152 -30.70703125 33.1953125 C-30.69154739 32.50567413 -30.67606354 31.81603577 -30.66011047 31.10549927 C-30.62462117 28.95571414 -30.62462117 28.95571414 -31 26 C-33.91765 24.0549 -35.62537285 23.54723683 -39 23 C-39 21.68 -39 20.36 -39 19 C-29.1 19 -19.2 19 -9 19 C-8.34 17.68 -7.68 16.36 -7 15 C-2.84916049 11.61575697 1.84893034 9.41654416 7 8 C6.030625 7.4225 5.06125 6.845 4.0625 6.25 C1 4 1 4 0.125 1.75 C0.08375 1.1725 0.0425 0.595 0 0 Z " fill="#1A1B1B" transform="translate(322,245)"/>
<path d="M0 0 C8.01061028 6.05680289 8.01061028 6.05680289 9.078125 11.62890625 C9.30725187 17.64348655 8.5929115 21.43292244 4.5625 25.9375 C3.5725 26.4325 3.5725 26.4325 2.5625 26.9375 C3.11486328 26.96666504 3.66722656 26.99583008 4.23632812 27.02587891 C17.75092505 27.81805598 29.38543957 29.84896978 41.5625 35.9375 C43.93652501 36.00866382 46.31250677 36.02159085 48.6875 36 C49.96882813 35.99097656 51.25015625 35.98195312 52.5703125 35.97265625 C53.55773437 35.96105469 54.54515625 35.94945312 55.5625 35.9375 C55.57667969 36.75992188 55.59085937 37.58234375 55.60546875 38.4296875 C55.89453092 45.19530476 56.70688215 50.10519232 60.01953125 55.9921875 C62.10243359 59.96815805 63.73602228 64.07498576 65.375 68.25 C65.68904785 69.02754639 66.0030957 69.80509277 66.32666016 70.60620117 C67.84644122 74.5025894 68.99612554 77.67776679 68.5625 81.9375 C58.78822149 87.17372063 49.7433759 89.25874709 38.5625 87.9375 C36.66796875 86.578125 36.66796875 86.578125 35.5625 84.9375 C35.1875 82.375 35.1875 82.375 35.5625 79.9375 C38.5625 77.9375 38.5625 77.9375 41.25 78.3125 C42.013125 78.51875 42.77625 78.725 43.5625 78.9375 C43.5625 80.5875 43.5625 82.2375 43.5625 83.9375 C45.81306722 83.82316637 48.06296674 83.69563564 50.3125 83.5625 C52.19195312 83.45808594 52.19195312 83.45808594 54.109375 83.3515625 C57.18503987 82.98276106 59.02648927 82.6486917 61.5625 80.9375 C64.65979274 74.74291451 60.33116969 63.25901318 58.5625 56.9375 C57.5725 54.9575 57.5725 54.9575 56.5625 52.9375 C56.2325 59.5375 55.9025 66.1375 55.5625 72.9375 C53.9125 72.9375 52.2625 72.9375 50.5625 72.9375 C50.32015625 72.1640625 50.0778125 71.390625 49.828125 70.59375 C48.2408274 65.66091744 46.6797818 60.90114716 44.25 56.3125 C43.693125 55.19875 43.13625 54.085 42.5625 52.9375 C43.0575 51.9475 43.0575 51.9475 43.5625 50.9375 C44.7185727 53.1409806 45.86234721 55.34953156 47 57.5625 C47.32548828 58.17996094 47.65097656 58.79742187 47.98632812 59.43359375 C49.94509628 63.27035611 51.09471258 66.65493908 51.5625 70.9375 C52.2225 70.9375 52.8825 70.9375 53.5625 70.9375 C53.5625 60.0475 53.5625 49.1575 53.5625 37.9375 C52.5725 38.4325 52.5725 38.4325 51.5625 38.9375 C45.44713514 39.34651038 41.11271253 38.40339853 35.5 36.0625 C25.53187303 32.04448932 17.25819183 30.62077425 6.4375 30.6875 C5.17550781 30.67976563 3.91351563 30.67203125 2.61328125 30.6640625 C1.39769531 30.66664063 0.18210937 30.66921875 -1.0703125 30.671875 C-2.72377686 30.67525879 -2.72377686 30.67525879 -4.41064453 30.67871094 C-7.47611153 30.9408012 -9.61086258 31.80057567 -12.4375 32.9375 C-19.85411042 30.46529653 -27.70979518 27.19943976 -32.51171875 20.796875 C-34.26109499 17.28335985 -34.00107308 14.81989236 -33.4375 10.9375 C-31.46339233 6.85097139 -29.41649747 4.92549855 -25.5 2.6875 C-24.64535156 2.18734375 -23.79070312 1.6871875 -22.91015625 1.171875 C-16.04865748 -2.25345456 -7.234759 -2.23619824 0 0 Z " fill="#EFEFEF" transform="translate(291.4375,153.0625)"/>
<path d="M0 0 C4.85738438 2.28710924 8.55686464 4.9855172 12.05078125 9.04296875 C12.54578125 9.53796875 12.54578125 9.53796875 13.05078125 10.04296875 C13.82923613 14.08562646 13.82622544 17.61214914 11.83984375 21.27734375 C6.81160236 27.55674379 0.95586102 30.30429095 -6.90625 31.48828125 C-14.49419268 31.93634975 -20.19111438 30.0799443 -25.94921875 25.04296875 C-29.52922375 20.13644404 -29.77375612 15.93793707 -28.94921875 10.04296875 C-26.86908787 5.4493464 -23.81256603 2.45418323 -19.48046875 -0.03515625 C-13.22440547 -2.31359905 -6.28401451 -2.03918352 0 0 Z " fill="#EFEFEF" transform="translate(240.94921875,152.95703125)"/>
<path d="M0 0 C1.03930664 0.01353516 1.03930664 0.01353516 2.09960938 0.02734375 C3.79572395 0.05073843 5.49165871 0.08660359 7.1875 0.125 C7.6825 1.115 7.6825 1.115 8.1875 2.125 C7.53523438 2.11597656 6.88296875 2.10695312 6.2109375 2.09765625 C0.97084905 2.26489685 0.97084905 2.26489685 -3.70703125 4.3984375 C-10.71384113 11.95514891 -11.34407626 22.12064274 -11.25 31.9375 C-11.24516602 33.51265381 -11.24516602 33.51265381 -11.24023438 35.11962891 C-11.09614224 43.1527657 -9.79355894 49.64573605 -6.8125 57.125 C-6.8125 57.785 -6.8125 58.445 -6.8125 59.125 C-11.93919307 59.682025 -16.42191752 60.0558296 -20.6875 56.8125 C-27.34052993 49.98645984 -28.15872013 41.60583166 -28.25 32.5 C-28.26023193 31.71278564 -28.27046387 30.92557129 -28.28100586 30.11450195 C-28.15994282 21.99650541 -26.02661418 14.46649022 -20.8125 8.125 C-14.19379727 2.32668269 -8.9094513 -0.22167056 0 0 Z " fill="#FBFBFB" transform="translate(287.8125,224.875)"/>
<path d="M0 0 C8.01061028 6.05680289 8.01061028 6.05680289 9.078125 11.62890625 C9.30725187 17.64348655 8.5929115 21.43292244 4.5625 25.9375 C3.5725 26.4325 3.5725 26.4325 2.5625 26.9375 C3.11486328 26.96666504 3.66722656 26.99583008 4.23632812 27.02587891 C17.75092505 27.81805598 29.38543957 29.84896978 41.5625 35.9375 C43.93652501 36.00866382 46.31250677 36.02159085 48.6875 36 C49.96882813 35.99097656 51.25015625 35.98195312 52.5703125 35.97265625 C53.55773437 35.96105469 54.54515625 35.94945312 55.5625 35.9375 C55.57667969 36.75992188 55.59085937 37.58234375 55.60546875 38.4296875 C55.89453092 45.19530476 56.70688215 50.10519232 60.01953125 55.9921875 C62.10243359 59.96815805 63.73602228 64.07498576 65.375 68.25 C65.68904785 69.02754639 66.0030957 69.80509277 66.32666016 70.60620117 C67.84644122 74.5025894 68.99612554 77.67776679 68.5625 81.9375 C58.78822149 87.17372063 49.7433759 89.25874709 38.5625 87.9375 C36.66796875 86.578125 36.66796875 86.578125 35.5625 84.9375 C35.1875 82.375 35.1875 82.375 35.5625 79.9375 C38.5625 77.9375 38.5625 77.9375 41.25 78.3125 C42.013125 78.51875 42.77625 78.725 43.5625 78.9375 C43.5625 80.5875 43.5625 82.2375 43.5625 83.9375 C45.81306722 83.82316637 48.06296674 83.69563564 50.3125 83.5625 C52.19195312 83.45808594 52.19195312 83.45808594 54.109375 83.3515625 C57.18503987 82.98276106 59.02648927 82.6486917 61.5625 80.9375 C64.65979274 74.74291451 60.33116969 63.25901318 58.5625 56.9375 C57.5725 54.9575 57.5725 54.9575 56.5625 52.9375 C56.2325 59.5375 55.9025 66.1375 55.5625 72.9375 C53.9125 72.9375 52.2625 72.9375 50.5625 72.9375 C50.32015625 72.1640625 50.0778125 71.390625 49.828125 70.59375 C48.2408274 65.66091744 46.6797818 60.90114716 44.25 56.3125 C43.693125 55.19875 43.13625 54.085 42.5625 52.9375 C43.0575 51.9475 43.0575 51.9475 43.5625 50.9375 C44.7185727 53.1409806 45.86234721 55.34953156 47 57.5625 C47.32548828 58.17996094 47.65097656 58.79742187 47.98632812 59.43359375 C49.94509628 63.27035611 51.09471258 66.65493908 51.5625 70.9375 C52.2225 70.9375 52.8825 70.9375 53.5625 70.9375 C53.5625 60.0475 53.5625 49.1575 53.5625 37.9375 C52.5725 38.4325 52.5725 38.4325 51.5625 38.9375 C45.44713514 39.34651038 41.11271253 38.40339853 35.5 36.0625 C25.53187303 32.04448932 17.25819183 30.62077425 6.4375 30.6875 C5.17550781 30.67976563 3.91351563 30.67203125 2.61328125 30.6640625 C1.39769531 30.66664063 0.18210937 30.66921875 -1.0703125 30.671875 C-2.72377686 30.67525879 -2.72377686 30.67525879 -4.41064453 30.67871094 C-7.47611153 30.9408012 -9.61086258 31.80057567 -12.4375 32.9375 C-19.85411042 30.46529653 -27.70979518 27.19943976 -32.51171875 20.796875 C-34.26109499 17.28335985 -34.00107308 14.81989236 -33.4375 10.9375 C-31.46339233 6.85097139 -29.41649747 4.92549855 -25.5 2.6875 C-24.64535156 2.18734375 -23.79070312 1.6871875 -22.91015625 1.171875 C-16.04865748 -2.25345456 -7.234759 -2.23619824 0 0 Z M-24.9375 6 C-27.27391115 10.57547184 -27.29946372 14.91306191 -26.4375 19.9375 C-24.47986974 23.85276052 -21.50511689 26.37998516 -17.4375 27.9375 C-7.35412138 29.04703115 -7.35412138 29.04703115 1.875 25.6875 C5.5310853 21.94638946 6.86145757 19.2945143 7 14.0625 C6.90441403 10.24468394 6.55716939 8.92833801 4.5625 5.5 C-0.45456488 1.21459041 -5.78913218 -0.70130727 -12.421875 -0.4140625 C-17.34605558 0.44480621 -21.1343858 2.86243078 -24.9375 6 Z " fill="#121212" transform="translate(291.4375,153.0625)"/>
<path d="M0 0 C4.41241647 2.53652777 7.16466931 5.06798901 8.61328125 10.08984375 C8.78839615 14.58711275 8.21110474 18.03215604 5.98828125 21.96484375 C0.75449372 26.64770627 -4.17837059 27.62014732 -11.02734375 27.37109375 C-15.92340542 26.78745726 -18.65138938 24.74524601 -22.26171875 21.52734375 C-24.89147112 18.08382436 -25.15933739 14.81215727 -24.94140625 10.5625 C-24.00953525 6.40845534 -21.7342392 3.64586805 -18.38671875 1.08984375 C-12.62615629 -1.72411521 -6.05331701 -2.30838439 0 0 Z " fill="#EFEFEF" transform="translate(238.38671875,322.91015625)"/>
<path d="M0 0 C3.83830367 0.81162368 6.55350401 2.69529561 8.89453125 5.83984375 C10.66743431 9.69295308 10.39986542 13.63347367 9.7734375 17.75 C8.03706746 22.04523115 5.88151411 23.73259064 1.7734375 25.75 C-4.37091445 26.50612313 -11.81548001 27.02843072 -17.4765625 24.125 C-21.65228303 20.51869591 -23.02609827 17.65441014 -23.6015625 12.1875 C-23.07029095 7.31751084 -21.50846927 4.97764616 -18.01171875 1.62890625 C-12.70075246 -1.95394759 -6.14159834 -0.68958297 0 0 Z " fill="#F1F1F1" transform="translate(288.2265625,323.25)"/>
<path d="M0 0 C12.21 0 24.42 0 37 0 C35.02 0.99 35.02 0.99 33 2 C28.83488485 4.36398941 28.83488485 4.36398941 26 8 C25.76547484 12.24632668 25.77160697 16.49650524 25.75976562 20.74853516 C25.75006842 22.86010252 25.7190493 24.97069274 25.6875 27.08203125 C25.6809688 28.42707756 25.67571879 29.77213083 25.671875 31.1171875 C25.6625293 32.34034668 25.65318359 33.56350586 25.64355469 34.82373047 C25.77331371 38.40197405 25.77331371 38.40197405 29 42 C20.09 42 11.18 42 2 42 C3.32 41.34 4.64 40.68 6 40 C7.82052716 38.86976337 7.82052716 38.86976337 9 37 C9.48109755 33.87000535 9.48109755 33.87000535 9.43359375 30.28515625 C9.4388356 29.63300644 9.44407745 28.98085663 9.44947815 28.3089447 C9.45589347 26.93131939 9.45456757 25.55363927 9.44604492 24.17602539 C9.43754137 22.07273299 9.46628361 19.97216417 9.49804688 17.86914062 C9.49965929 16.52864664 9.49908059 15.18814787 9.49609375 13.84765625 C9.49794678 12.63086182 9.4997998 11.41406738 9.50170898 10.16040039 C8.90757008 6.41775895 7.98595805 5.25794136 5 3 C2.35815459 2.20318682 2.35815459 2.20318682 0 2 C0 1.34 0 0.68 0 0 Z " fill="#FBFBFB" transform="translate(284,265)"/>
<path d="M0 0 C2.62336528 2.62336528 2.24951552 4.50074249 2.28216553 8.07298279 C2.27968811 8.9244136 2.27721069 9.77584442 2.2746582 10.65307617 C2.27976913 11.54920624 2.28488007 12.4453363 2.29014587 13.36862183 C2.30409209 16.34347134 2.30308064 19.31809034 2.30078125 22.29296875 C2.30466684 24.35842475 2.30900123 26.42387995 2.31376648 28.48933411 C2.32124054 32.82633041 2.32092988 37.16324533 2.31567383 41.50024414 C2.30989281 47.05083355 2.32677139 52.60108779 2.3500185 58.15162182 C2.3647759 62.42137085 2.36562454 66.69103969 2.36250877 70.96080971 C2.36302148 73.00647963 2.36824964 75.0521541 2.37832069 77.0977993 C2.39069961 79.96540179 2.38388338 82.8323585 2.37231445 85.69995117 C2.38378006 86.96191566 2.38378006 86.96191566 2.39547729 88.24937439 C2.34820687 93.5682303 1.40608176 97.24439663 -1 102 C-1.99 101.505 -1.99 101.505 -3 101 C-2.67257813 100.51015625 -2.34515625 100.0203125 -2.0078125 99.515625 C-0.58227411 95.95730437 -0.78845652 92.51796989 -0.875 88.75 C-0.88402344 88.00492187 -0.89304688 87.25984375 -0.90234375 86.4921875 C-0.92581642 84.66131941 -0.96168475 82.83061762 -1 81 C-1.75023437 81.64066406 -2.50046875 82.28132813 -3.2734375 82.94140625 C-6.61333163 85.46307417 -8.84234033 85.9230063 -13 86 C-14.9375 84.9375 -14.9375 84.9375 -16 83 C-16.40111303 79.79109575 -16.52233914 77.85223754 -14.8125 75.0625 C-13 74 -13 74 -10.3125 74.3125 C-9.549375 74.539375 -8.78625 74.76625 -8 75 C-8.99 75.495 -8.99 75.495 -10 76 C-9.34 77.32 -8.68 78.64 -8 80 C-5.56282742 79.72965366 -5.56282742 79.72965366 -3 79 C-0.91037764 75.86556646 -0.74632446 75.12996308 -0.8125 71.5625 C-0.82216797 70.41974609 -0.82216797 70.41974609 -0.83203125 69.25390625 C-0.99559604 67.05909496 -1.41834168 65.11723627 -2 63 C-2 62.67 -2 62.34 -2 62 C-7.61752378 58.25498414 -13.39827432 58.07298603 -20 59 C-26.65672437 61.61744987 -30.5506116 66.15298708 -33.75 72.4375 C-36.71431538 81.10116209 -35.95408987 90.70041947 -32.15625 98.93359375 C-30.695879 101.54351355 -29.04012416 103.81415268 -27 106 C-27.33 106.66 -27.66 107.32 -28 108 C-34.80246832 99.88238781 -37.8741383 91.53030681 -40.09375 81.25 C-40.8113357 78.83269533 -40.8113357 78.83269533 -43.09375 77.6875 C-43.7228125 77.460625 -44.351875 77.23375 -45 77 C-45 76.34 -45 75.68 -45 75 C-43.80375 74.690625 -42.6075 74.38125 -41.375 74.0625 C-36.61833175 72.32287045 -34.85636549 69.4524097 -32.421875 65.15625 C-30.88208731 62.82118734 -29.31242956 61.54161971 -27 60 C-34.12427945 60.99530375 -39.68647997 62.5562618 -46 66 C-46.66 66 -47.32 66 -48 66 C-49.79275866 69.11910856 -50.34290718 71.67682428 -50.625 75.25 C-50.69976562 76.14203125 -50.77453125 77.0340625 -50.8515625 77.953125 C-50.90054688 78.62859375 -50.94953125 79.3040625 -51 80 C-54.0580633 77.61088804 -54.93142525 76.47145142 -55.5 72.5625 C-54.88694224 68.19446349 -54.31081318 66.9258349 -51 64 C-43.97073481 59.78244089 -36.55905318 58.05970816 -28.578125 56.67578125 C-24.97011636 55.99435604 -21.52713164 55.01079831 -18 54 C-15.0625 53.875 -15.0625 53.875 -13 54 C-13 53.34 -13 52.68 -13 52 C-12.45730469 51.74605469 -11.91460937 51.49210937 -11.35546875 51.23046875 C-10.64003906 50.88628906 -9.92460937 50.54210937 -9.1875 50.1875 C-8.47980469 49.85105469 -7.77210938 49.51460937 -7.04296875 49.16796875 C-4.98870965 47.99354529 -3.58383722 46.74371984 -2 45 C-3.01176437 48.40320742 -3.64843582 49.75725331 -6.625 51.8125 C-7.40875 52.204375 -8.1925 52.59625 -9 53 C-6.03 53.99 -3.06 54.98 0 56 C0 37.52 0 19.04 0 0 Z " fill="#1E1E1E" transform="translate(192,200)"/>
<path d="M0 0 C1.81951172 -0.0299707 1.81951172 -0.0299707 3.67578125 -0.06054688 C15.02574741 -0.05449033 24.74581183 2.79633317 34.91796875 7.703125 C38.76604826 8.8738682 38.76604826 8.8738682 47.625 8.4375 C47.625 19.3275 47.625 30.2175 47.625 41.4375 C46.965 41.4375 46.305 41.4375 45.625 41.4375 C45.33367187 40.61507812 45.04234375 39.79265625 44.7421875 38.9453125 C40.13431797 26.39683763 34.96534402 15.26995598 22.58984375 8.8671875 C11.32595854 3.98198326 0.39191381 2.61516947 -11.28125 6.87890625 C-13.375 7.4375 -13.375 7.4375 -16.375 6.4375 C-16.375 3.4375 -16.375 3.4375 -15.24755859 1.77709961 C-11.10279715 -1.18799896 -4.89741748 -0.02774026 0 0 Z " fill="#FBFBFB" transform="translate(297.375,182.5625)"/>
<path d="M0 0 C5.37747077 1.35534926 5.37747077 1.35534926 14.5 -0.0625 C13.84 7.8575 13.18 15.7775 12.5 23.9375 C11.18 23.6075 9.86 23.2775 8.5 22.9375 C7.33984375 20.79296875 7.33984375 20.79296875 6.4375 18.125 C5.19671307 14.51979505 3.81113748 11.9557277 1.5 8.9375 C1.5 8.2775 1.5 7.6175 1.5 6.9375 C-2.64982898 4.92546171 -5.91381245 4.21336512 -10.5 4.9375 C-15.192318 8.55851252 -17.55242995 13.13727912 -18.5 18.9375 C-18.80886357 23.54443613 -18.82457732 28.13404705 -18.8125 32.75 C-18.82861328 33.97009766 -18.84472656 35.19019531 -18.86132812 36.44726562 C-18.86531014 43.85780164 -17.98624103 49.97880304 -15.5 56.9375 C-15.15113223 58.26685329 -14.81268591 59.59917403 -14.5 60.9375 C-19.16252858 62.49167619 -22.98753327 62.48198802 -27.625 60.8125 C-34.52141946 56.31483514 -37.18695624 50.36292385 -39.0625 42.61328125 C-40.52669812 33.65814097 -39.96047401 25.30031219 -36.5 16.9375 C-35.56576355 19.94781744 -35.45550089 20.80400268 -36.5 23.9375 C-37.4984216 34.71219048 -37.81696558 46.56021025 -31.25 55.671875 C-27.1608403 59.80750242 -21.96968818 59.81859374 -16.5 59.9375 C-16.77714844 59.18984375 -17.05429687 58.4421875 -17.33984375 57.671875 C-17.70207031 56.68703125 -18.06429688 55.7021875 -18.4375 54.6875 C-18.97697266 53.22570312 -18.97697266 53.22570312 -19.52734375 51.734375 C-23.65753178 39.85801103 -23.67650167 22.80629662 -18.75390625 11.16015625 C-16.80057409 7.69770765 -15.05144991 4.87957827 -11.5 2.9375 C-8.48417799 2.2119258 -5.59721897 1.95126542 -2.5 1.9375 C-4.85448675 1.88295591 -7.20767875 1.8435721 -9.5625 1.8125 C-10.87347656 1.78929687 -12.18445313 1.76609375 -13.53515625 1.7421875 C-17.61824299 1.94332478 -20.64999053 2.66584538 -24.5 3.9375 C-19.12132815 -3.02313416 -7.58776353 -1.97067357 0 0 Z " fill="#646464" transform="translate(297.5,224.0625)"/>
<path d="M0 0 C3.41932126 1.02579638 6.50279238 2.23269626 9.625 3.9375 C14.80285543 6.61122881 20.33592446 7.77343468 26 9 C26.79148437 9.18691406 27.58296875 9.37382812 28.3984375 9.56640625 C38.3551579 11.22585965 48.20772302 10.1401441 57.9140625 7.75390625 C60.93082582 7.01689952 63.93215641 6.47445629 67 6 C57.92414088 13.41816795 45.14337236 12.64449087 34 13 C34.48726563 13.55945313 34.97453125 14.11890625 35.4765625 14.6953125 C38.0368267 18.5685327 37.51107772 22.51387334 37 27 C35.2559241 32.2322277 32.7589164 34.32310953 28 37 C20.85171018 39.38276327 12.34147988 39.11352947 5.5 35.9375 C-0.23338417 32.58436758 -4.07541253 28.87649435 -6.125 22.5 C-5.94305024 17.40540685 -4.05654479 13.98328365 -0.46484375 10.51953125 C0.98777335 9.30247368 2.49184152 8.14751189 4 7 C4.66 6.34 5.32 5.68 6 5 C5.01 4.360625 4.02 3.72125 3 3.0625 C2.01 2.381875 1.02 1.70125 0 1 C0 0.67 0 0.34 0 0 Z M4.171875 14.39453125 C1.5199387 18.02768399 1.70665227 21.67312099 2 26 C3.45119895 30.35359686 5.39962466 33.17716417 9.57421875 35.3046875 C16.26377155 37.22214386 24.15650377 37.51653132 30.33984375 34.21875 C33.63210958 31.47277792 34.71554303 29.81453606 35.37109375 25.6328125 C35.48366368 21.38164204 35.5602527 18.00275525 32.9375 14.5 C27.04421409 9.48443752 20.63218801 9.44763356 13.109375 9.54296875 C9.05119415 10.13946016 7.02108145 11.53827231 4.171875 14.39453125 Z " fill="#1F1F1F" transform="translate(263,313)"/>
<path d="M0 0 C0.66 0.66 1.32 1.32 2 2 C1.625 4.625 1.625 4.625 1 7 C-0.32 7.33 -1.64 7.66 -3 8 C-3.45950415 13.23876424 -3.45950415 13.23876424 -1.8125 18 C0.55995679 19.30894168 2.3335118 19.21620175 5 19 C5.66 17.68 6.32 16.36 7 15 C6.34 14.67 5.68 14.34 5 14 C6.75 13.3125 6.75 13.3125 9 13 C11.25 14.4375 11.25 14.4375 13 16 C12.6875 19.375 12.6875 19.375 12 23 C8.42529543 25.38313638 7.21446465 25.64837918 3 25 C-1.70885346 22.37064021 -4.23219676 19.21677806 -5.9375 14.125 C-6.31472532 12.75614643 -6.67736123 11.38273759 -7 10 C-9.37612352 13.56418529 -9.24563712 15.122225 -9.23046875 19.34765625 C-9.22756836 21.21454102 -9.22756836 21.21454102 -9.22460938 23.11914062 C-9.21236328 24.42044922 -9.20011719 25.72175781 -9.1875 27.0625 C-9.18685547 28.36767578 -9.18621094 29.67285156 -9.18554688 31.01757812 C-9.49688699 37.19199655 -9.49688699 37.19199655 -8 43 C-6.35636866 43.72159424 -4.68949614 44.39351421 -3 45 C-3.33 45.99 -3.66 46.98 -4 48 C-14.56 48 -25.12 48 -36 48 C-36 46.68 -36 45.36 -36 44 C-33.69 43.34 -31.38 42.68 -29 42 C-28.92593483 37.4793661 -28.87143955 32.959084 -28.83520508 28.43798828 C-28.82010289 26.89951426 -28.79961954 25.36108339 -28.77368164 23.82275391 C-28.73735926 21.61349859 -28.72028881 19.40481152 -28.70703125 17.1953125 C-28.69154739 16.50567413 -28.67606354 15.81603577 -28.66011047 15.10549927 C-28.62462117 12.95571414 -28.62462117 12.95571414 -29 10 C-31.91765 8.0549 -33.62537285 7.54723683 -37 7 C-37 5.68 -37 4.36 -37 3 C-35.95021973 2.98018066 -34.90043945 2.96036133 -33.81884766 2.93994141 C-29.93106739 2.86397802 -26.04366597 2.77524702 -22.15625 2.68261719 C-20.47240671 2.64428896 -18.78848045 2.60944288 -17.10449219 2.578125 C-14.68654694 2.53255713 -12.26917472 2.47455077 -9.8515625 2.4140625 C-8.71867294 2.39673569 -8.71867294 2.39673569 -7.56289673 2.37905884 C-3.32174802 2.39669934 -3.32174802 2.39669934 0 0 Z M-36 4 C-36 4.66 -36 5.32 -36 6 C-34.329375 6.4021875 -34.329375 6.4021875 -32.625 6.8125 C-29 8 -29 8 -27 11 C-26.61374016 15.28490912 -26.67081309 19.57874352 -26.68432617 23.87890625 C-26.68748909 25.9927105 -26.66400987 28.10511846 -26.63867188 30.21875 C-26.63639905 31.56249824 -26.63569531 32.90625023 -26.63671875 34.25 C-26.63373779 35.47203125 -26.63075684 36.6940625 -26.62768555 37.953125 C-27 41 -27 41 -28.27270508 42.796875 C-30 44 -30 44 -34 46 C-25.09 46 -16.18 46 -7 46 C-7.99 44.68 -8.98 43.36 -10 42 C-10.57342709 37.72763479 -10.51518279 33.46355669 -10.50097656 29.15551758 C-10.50000428 27.07167296 -10.54163787 24.99151619 -10.5859375 22.90820312 C-10.58851563 21.58884766 -10.59109375 20.26949219 -10.59375 18.91015625 C-10.60083984 17.70496338 -10.60792969 16.49977051 -10.61523438 15.25805664 C-9.82580578 11.07753101 -8.27104612 9.63424498 -5 7 C-1.6875 5.6875 -1.6875 5.6875 1 5 C1 4.67 1 4.34 1 4 C-11.21 4 -23.42 4 -36 4 Z " fill="#656666" transform="translate(320,261)"/>
<path d="M0 0 C7.29458996 0.03377125 11.75685104 1.92292363 17 7 C20.4793119 11.19301691 21.90220826 14.52366255 22 20 C19.80903255 26.70983782 14.74281186 30.32072744 8.9375 33.875 C2.5180144 36.32607632 -5.97072973 36.23858652 -12.2578125 33.66796875 C-16.26154014 31.23265293 -18.8820857 28.2358286 -21 24 C-21.55308557 19.46651174 -21.42758431 15.92643268 -19.5 11.75 C-15.91243689 7.80368057 -11.737692 5.368846 -7 3 C-4.62597499 2.92883618 -2.24999323 2.91590915 0.125 2.9375 C1.40632813 2.94652344 2.68765625 2.95554687 4.0078125 2.96484375 C4.99523437 2.97644531 5.98265625 2.98804688 7 3 C4.69 2.34 2.38 1.68 0 1 C0 0.67 0 0.34 0 0 Z M-18.07421875 13.1328125 C-19.99436098 17.00550443 -19.93225349 20.84425029 -19 25 C-16.93926974 28.71886751 -14.30855369 31.16397959 -10.75 33.4375 C-3.8176923 34.85547203 2.16930927 34.73690952 8.375 31.12109375 C11.35980597 29.06186463 12.63257653 27.51309036 13.49609375 23.95703125 C14.11157407 20.16897198 14.1342651 17.46545234 13.0625 13.75 C9.63984039 9.18645386 5.97366716 6.44647127 0.2421875 5.5859375 C-7.3628425 5.35799382 -13.2272214 6.78592997 -18.07421875 13.1328125 Z " fill="#141414" transform="translate(233,316)"/>
<path d="M0 0 C17.16 0 34.32 0 52 0 C52 1.32 52 2.64 52 4 C51.32453125 4.18175781 50.6490625 4.36351562 49.953125 4.55078125 C49.06109375 4.80214844 48.1690625 5.05351562 47.25 5.3125 C46.36828125 5.55613281 45.4865625 5.79976562 44.578125 6.05078125 C41.94227495 7.02125331 40.14592674 8.21005644 38 10 C39.4595886 6.1519937 41.33899114 4.78793456 45 3 C47.475 2.505 47.475 2.505 50 2 C34.16 1.67 18.32 1.34 2 1 C2 1.66 2 2.32 2 3 C2.99 3.33 3.98 3.66 5 4 C3.7315625 3.87625 3.7315625 3.87625 2.4375 3.75 C-2.08946896 4.07923411 -4.23809842 5.49206561 -8 8 C-8.33 8.66 -8.66 9.32 -9 10 C-9.66 10 -10.32 10 -11 10 C-11.29003906 10.72960937 -11.58007812 11.45921875 -11.87890625 12.2109375 C-12.56140209 13.90885399 -13.25407524 15.6027858 -13.96484375 17.2890625 C-19.25442704 29.74756022 -19.25442704 29.74756022 -20 43 C-18.48698364 45.3166031 -18.48698364 45.3166031 -16 47 C-12.4964365 47.48324206 -12.4964365 47.48324206 -8.75 47.25 C-7.48671875 47.21390625 -6.2234375 47.1778125 -4.921875 47.140625 C-3.47554687 47.07101563 -3.47554687 47.07101563 -2 47 C-1.34 45.35 -0.68 43.7 0 42 C1.98 42.33 3.96 42.66 6 43 C6.8125 45.1875 6.8125 45.1875 7 48 C5.08191826 50.87712261 3.568879 52.6581058 0.08203125 53.41796875 C-9.12367925 53.77009975 -18.36232789 51.03392026 -26 46 C-26.33147141 40.95855115 -25.26477072 37.5073401 -23.3125 32.875 C-22.75519425 31.548183 -22.19790278 30.22136 -21.640625 28.89453125 C-21.36154297 28.2392041 -21.08246094 27.58387695 -20.79492188 26.90869141 C-20.06952088 25.16692698 -19.39889117 23.40260894 -18.734375 21.63671875 C-15.69251069 13.65689471 -12.12996879 7.49356606 -4.6875 3 C-2 2 -2 2 0 2 C0 1.34 0 0.68 0 0 Z " fill="#2C2D2D" transform="translate(178,189)"/>
<path d="M0 0 C2.62336528 2.62336528 2.24951552 4.50074249 2.28216553 8.07298279 C2.27968811 8.9244136 2.27721069 9.77584442 2.2746582 10.65307617 C2.2823246 11.99727127 2.2823246 11.99727127 2.29014587 13.36862183 C2.30409209 16.34347134 2.30308064 19.31809034 2.30078125 22.29296875 C2.30466684 24.35842475 2.30900123 26.42387995 2.31376648 28.48933411 C2.32124054 32.82633041 2.32092988 37.16324533 2.31567383 41.50024414 C2.30989281 47.05083355 2.32677139 52.60108779 2.3500185 58.15162182 C2.3647759 62.42137085 2.36562454 66.69103969 2.36250877 70.96080971 C2.36302148 73.00647963 2.36824964 75.0521541 2.37832069 77.0977993 C2.39069961 79.96540179 2.38388338 82.8323585 2.37231445 85.69995117 C2.38378006 86.96191566 2.38378006 86.96191566 2.39547729 88.24937439 C2.34820687 93.5682303 1.40608176 97.24439663 -1 102 C-1.66 101.67 -2.32 101.34 -3 101 C-2.67257813 100.51015625 -2.34515625 100.0203125 -2.0078125 99.515625 C-0.58227411 95.95730437 -0.78845652 92.51796989 -0.875 88.75 C-0.88853516 87.63238281 -0.88853516 87.63238281 -0.90234375 86.4921875 C-0.92581642 84.66131941 -0.96168475 82.83061762 -1 81 C-1.75023437 81.64066406 -2.50046875 82.28132813 -3.2734375 82.94140625 C-6.61333163 85.46307417 -8.84234033 85.9230063 -13 86 C-14.9375 84.9375 -14.9375 84.9375 -16 83 C-16.40111303 79.79109575 -16.52233914 77.85223754 -14.8125 75.0625 C-13 74 -13 74 -10.3125 74.3125 C-9.549375 74.539375 -8.78625 74.76625 -8 75 C-8.99 75.495 -8.99 75.495 -10 76 C-9.34 77.32 -8.68 78.64 -8 80 C-5.56282742 79.72965366 -5.56282742 79.72965366 -3 79 C-0.91037764 75.86556646 -0.74632446 75.12996308 -0.8125 71.5625 C-0.81894531 70.80066406 -0.82539063 70.03882813 -0.83203125 69.25390625 C-0.99548229 67.06062143 -1.39883487 65.11129193 -2 63 C-1.34 63 -0.68 63 0 63 C0.33 61.35 0.66 59.7 1 58 C-0.485 57.505 -0.485 57.505 -2 57 C-1.01 56.505 -1.01 56.505 0 56 C0 37.52 0 19.04 0 0 Z " fill="#656565" transform="translate(192,200)"/>
<path d="M0 0 C4.85738438 2.28710924 8.55686464 4.9855172 12.05078125 9.04296875 C12.54578125 9.53796875 12.54578125 9.53796875 13.05078125 10.04296875 C13.82923613 14.08562646 13.82622544 17.61214914 11.83984375 21.27734375 C6.81160236 27.55674379 0.95586102 30.30429095 -6.90625 31.48828125 C-14.49419268 31.93634975 -20.19111438 30.0799443 -25.94921875 25.04296875 C-29.52922375 20.13644404 -29.77375612 15.93793707 -28.94921875 10.04296875 C-26.86908787 5.4493464 -23.81256603 2.45418323 -19.48046875 -0.03515625 C-13.22440547 -2.31359905 -6.28401451 -2.03918352 0 0 Z M-24.88671875 5.60546875 C-27.4944319 9.06802826 -27.60017892 12.40891287 -27.37109375 16.640625 C-26.56895663 21.20835025 -24.41432685 23.9454505 -20.76953125 26.67578125 C-17.19172035 28.41017711 -14.47701264 28.4764755 -10.51171875 28.48046875 C-9.23425781 28.49980469 -7.95679688 28.51914063 -6.640625 28.5390625 C-1.53851727 27.85338241 1.36792318 25.79000361 4.89453125 22.12890625 C7.16483939 18.03314764 6.73844412 13.5618962 6.05078125 9.04296875 C4.29261112 5.1515522 1.46596627 3.28249857 -2.19921875 1.16796875 C-10.8146851 -1.41667115 -17.93013244 -0.46304271 -24.88671875 5.60546875 Z " fill="#171717" transform="translate(240.94921875,152.95703125)"/>
<path d="M0 0 C2.0625 0.4375 2.0625 0.4375 4 1 C3.67 1.66 3.34 2.32 3 3 C2.505 2.505 2.505 2.505 2 2 C1.92567582 7.03536777 1.87131599 12.07041408 1.83520508 17.10620117 C1.8201466 18.81817184 1.79969545 20.53010411 1.77368164 22.24194336 C1.7371681 24.70696505 1.72024438 27.17147535 1.70703125 29.63671875 C1.69154739 30.39836838 1.67606354 31.16001801 1.66011047 31.94474792 C1.65868036 36.49127866 2.19338439 39.38115835 5 43 C8.2853573 45.22934959 12.19786024 45.97634699 16 47 C16 48.32 16 49.64 16 51 C5.44 51 -5.12 51 -16 51 C-16 52.65 -16 54.3 -16 56 C-16.99 56.495 -16.99 56.495 -18 57 C-18 55.02 -18 53.04 -18 51 C-23.94 51 -29.88 51 -36 51 C-35.67 49.35 -35.34 47.7 -35 46 C-31.7 45.34 -28.4 44.68 -25 44 C-28 47 -28 47 -30 48 C-8.22 48.495 -8.22 48.495 14 49 C14 48.34 14 47.68 14 47 C13.13375 47.0825 12.2675 47.165 11.375 47.25 C7.06748045 46.93092448 5.25328253 45.81951153 2 43 C-0.78337005 37.73130218 -1.42839895 33.59405413 -1.328125 27.6953125 C-1.32625183 26.93072723 -1.32437866 26.16614197 -1.32244873 25.37838745 C-1.31577055 23.77662741 -1.30194136 22.1748825 -1.28125 20.57324219 C-1.24982354 18.11117553 -1.24024682 15.64974827 -1.234375 13.1875 C-1.22521474 11.62759628 -1.21484211 10.06769911 -1.203125 8.5078125 C-1.19675018 7.40012009 -1.19675018 7.40012009 -1.19024658 6.27005005 C-1.11723517 1.11723517 -1.11723517 1.11723517 0 0 Z " fill="#737373" transform="translate(214,258)"/>
<path d="M0 0 C3.76981163 4.63961183 5.54292079 9.91358385 7.6875 15.4375 C8.10322266 16.47455078 8.51894531 17.51160156 8.94726562 18.58007812 C9.33978516 19.58361328 9.73230469 20.58714844 10.13671875 21.62109375 C10.67365356 22.98899048 10.67365356 22.98899048 11.22143555 24.38452148 C12.0195477 27.06566778 12.14961937 29.21996547 12 32 C2.22572149 37.23622063 -6.8191241 39.32124709 -18 38 C-19.89453125 36.640625 -19.89453125 36.640625 -21 35 C-21.375 32.4375 -21.375 32.4375 -21 30 C-18 28 -18 28 -15.3125 28.375 C-14.1678125 28.684375 -14.1678125 28.684375 -13 29 C-13 30.65 -13 32.3 -13 34 C-10.74943278 33.88566637 -8.49953326 33.75813564 -6.25 33.625 C-4.37054688 33.52058594 -4.37054688 33.52058594 -2.453125 33.4140625 C0.62253987 33.04526106 2.46398927 32.7111917 5 31 C8.09729274 24.80541451 3.76866969 13.32151318 2 7 C1.33428114 5.66619318 0.66782282 4.33275463 0 3 C0 2.01 0 1.02 0 0 Z " fill="#171818" transform="translate(348,203)"/>
<path d="M0 0 C0.75 1.625 0.75 1.625 1 4 C-1.79064389 9.06450187 -4.50322511 12.1677417 -10 14 C-14.97183655 14.49718365 -17.73765941 14.56455878 -21.8125 11.5625 C-22.35519531 11.11003906 -22.89789063 10.65757812 -23.45703125 10.19140625 C-25.10893105 8.78063213 -25.10893105 8.78063213 -28 8 C-27.67 23.18 -27.34 38.36 -27 54 C-26.01 53.505 -26.01 53.505 -25 53 C-25.8125 54.9375 -25.8125 54.9375 -27 57 C-28.485 57.495 -28.485 57.495 -30 58 C-30.05078757 50.98912658 -30.08577044 43.97830078 -30.10986328 36.96728516 C-30.11990924 34.58315254 -30.13354839 32.1990322 -30.15087891 29.81494141 C-30.17518864 26.38440922 -30.18649734 22.95404023 -30.1953125 19.5234375 C-30.20563507 18.46071625 -30.21595764 17.397995 -30.22659302 16.30307007 C-30.22737326 11.13499906 -30.0929635 6.83047286 -28 2 C-27.67 2.66 -27.34 3.32 -27 4 C-27.33 4.66 -27.66 5.32 -28 6 C-27.2575 5.7525 -26.515 5.505 -25.75 5.25 C-24.8425 5.1675 -23.935 5.085 -23 5 C-22.1646875 5.9590625 -22.1646875 5.9590625 -21.3125 6.9375 C-18.09457609 9.80754024 -15.66495193 9.50780708 -11.47265625 9.31640625 C-8.03766096 8.87685709 -5.80044353 8.04910502 -3 6 C-1.09793151 2.94960779 -1.09793151 2.94960779 0 0 Z " fill="#7A7B7B" transform="translate(243,197)"/>
<path d="M0 0 C0 2 0 4 0 6 C0.25394531 6.78375 0.50789063 7.5675 0.76953125 8.375 C1 11 1 11 -0.80078125 13.5 C-1.62964844 14.325 -2.45851562 15.15 -3.3125 16 C-6.54693593 19.24966876 -8.46149439 21.68785048 -10 26 C-12 28.3125 -12 28.3125 -14 30 C-14.66 30 -15.32 30 -16 30 C-16 29.34 -16 28.68 -16 28 C-17.093125 28.61875 -18.18625 29.2375 -19.3125 29.875 C-19.92738281 30.22304687 -20.54226562 30.57109375 -21.17578125 30.9296875 C-22.81982289 31.89428581 -24.41400588 32.94267059 -26 34 C-24.70234874 31.21545667 -23.27315368 28.92758387 -21.3125 26.56640625 C-20.78301758 25.92324463 -20.25353516 25.28008301 -19.70800781 24.61743164 C-19.14436523 23.9393042 -18.58072266 23.26117676 -18 22.5625 C-13.21979234 16.75290442 -8.53920262 10.88655784 -3.984375 4.89868164 C-1.07627812 1.07627812 -1.07627812 1.07627812 0 0 Z " fill="#D2D2D2" transform="translate(244,216)"/>
<path d="M0 0 C2.73265461 -0.14060639 5.16691562 -0.09807024 7.875 0.125 C9.02585083 0.20959473 9.02585083 0.20959473 10.19995117 0.29589844 C19.03005193 1.03812541 26.82843249 2.94515701 34.875 6.6875 C41.55730679 9.64756693 47.80744542 9.47879431 55 9 C56.25646855 21.4100432 55.75131468 33.56838268 55 46 C53.35 46 51.7 46 50 46 C49.75765625 45.2265625 49.5153125 44.453125 49.265625 43.65625 C47.6783274 38.72341744 46.1172818 33.96364716 43.6875 29.375 C43.130625 28.26125 42.57375 27.1475 42 26 C42.33 25.34 42.66 24.68 43 24 C44.1560727 26.2034806 45.29984721 28.41203156 46.4375 30.625 C46.76298828 31.24246094 47.08847656 31.85992187 47.42382812 32.49609375 C49.38259628 36.33285611 50.53221258 39.71743908 51 44 C51.66 44 52.32 44 53 44 C53 33.11 53 22.22 53 11 C52.34 11.33 51.68 11.66 51 12 C44.88463514 12.40901038 40.55021253 11.46589853 34.9375 9.125 C26.02186151 5.53123251 18.21320708 3.67638838 8.5625 3.375 C7.54478516 3.33632812 6.52707031 3.29765625 5.47851562 3.2578125 C2.98585064 3.16419128 0.4931805 3.07846007 -2 3 C-1.34 2.01 -0.68 1.02 0 0 Z " fill="#656565" transform="translate(292,180)"/>
<path d="M0 0 C0.33 0.66 0.66 1.32 1 2 C1.59425781 1.7834375 2.18851562 1.566875 2.80078125 1.34375 C14.0387971 -2.43138441 25.46197044 -2.02383488 36.3125 3.08984375 C37.91267807 3.99639625 39.46440147 4.98790097 41 6 C40.34 6.33 39.68 6.66 39 7 C36.9765625 6.2578125 36.9765625 6.2578125 34.625 5.125 C24.9538468 0.49966586 12.37730726 0.37070874 2.24609375 3.94140625 C-1.06959176 5.50410325 -4.02862419 7.44879946 -6.9921875 9.59765625 C-8.93024492 10.95128001 -10.86261198 11.99839889 -13 13 C-11.68 11.02 -10.36 9.04 -9 7 C-9.66 6.67 -10.32 6.34 -11 6 C-11 5.01 -11 4.02 -11 3 C-16.24990666 4.99496453 -19.83001375 7.23684167 -24 11 C-22.59844241 7.66227007 -21.0490314 5.98250943 -18.125 3.875 C-17.44695312 3.37742188 -16.76890625 2.87984375 -16.0703125 2.3671875 C-11.10688629 -0.91054679 -5.43700115 -3.82603784 0 0 Z " fill="#909090" transform="translate(283,187)"/>
<path d="M0 0 C1.80597656 -0.00580078 1.80597656 -0.00580078 3.6484375 -0.01171875 C5.53949219 0.00568359 5.53949219 0.00568359 7.46875 0.0234375 C8.69851563 0.01183594 9.92828125 0.00023437 11.1953125 -0.01171875 C18.91153598 0.01285521 25.65419981 0.91819481 32.96875 3.3984375 C33.46375 5.3784375 33.46375 5.3784375 33.96875 7.3984375 C29.57081151 8.91022886 27.02152442 7.83360497 22.9296875 6.16796875 C14.30845776 2.78473716 4.56197722 3.73532691 -3.9375 6.83984375 C-6.03125 7.3984375 -6.03125 7.3984375 -9.03125 6.3984375 C-9.03125 3.3984375 -9.03125 3.3984375 -7.90820312 1.73583984 C-5.23997236 -0.16537869 -3.25645804 0.01013421 0 0 Z " fill="#F7F7F7" transform="translate(290.03125,182.6015625)"/>
<path d="M0 0 C2 0 2 0 3.54296875 1.35546875 C7.96402968 6.28059364 7.96402968 6.28059364 8.125 9.5 C6.91143632 12.19680818 5.45209087 14.69056726 3.921875 17.21875 C2.62073938 19.73280865 2.2726401 22.20543893 2 25 C0 24 0 24 -0.74609375 22.07421875 C-0.97425781 21.28660156 -1.20242187 20.49898437 -1.4375 19.6875 C-2.30920803 16.85780164 -2.91594199 15.10807458 -4.75 12.75 C-6 11 -6 11 -6 8.625 C-4.61042432 4.97736383 -2.69772391 2.8293202 0 0 Z " fill="#ECECEC" transform="translate(255,140)"/>
<path d="M0 0 C2 1 2 1 2.74609375 2.890625 C2.97425781 3.66921875 3.20242188 4.4478125 3.4375 5.25 C4.33051676 8.13971064 5.13539336 10.21759648 6.75 12.8125 C8 15 8 15 8 16.9375 C6.4814223 20.06956651 4.30677799 22.39748124 2 25 C-2.08851671 23.6371611 -3.54626098 21.47613028 -6 18 C-5.64509259 15.03652308 -4.41803582 12.72125676 -3 10.125 C-1.2620086 6.76236447 -0.38015545 3.80155446 0 0 Z " fill="#C7C7C7" transform="translate(255,337)"/>
<path d="M0 0 C2.5625 0.3125 2.5625 0.3125 4.375 1.6875 C5.5625 3.3125 5.5625 3.3125 5.5625 5.3125 C3.2525 5.6425 0.9425 5.9725 -1.4375 6.3125 C-1.16715366 8.74967258 -1.16715366 8.74967258 -0.4375 11.3125 C2.37958195 13.62787595 2.37958195 13.62787595 5.5625 13.125 C9.24911919 12.13169703 9.24911919 12.13169703 11.5625 9.3125 C12.30636068 7.00261685 12.98440703 4.66934056 13.5625 2.3125 C13.8925 2.3125 14.2225 2.3125 14.5625 2.3125 C15.280551 9.13398454 15.280551 9.13398454 13.33203125 12.33203125 C10.91413582 15.16783453 8.68052441 17.23381706 5.5625 19.3125 C2.875 19.4375 2.875 19.4375 0.5625 19.3125 C-0.15364583 17.58723958 -0.86979167 15.86197917 -1.5859375 14.13671875 C-2.50556692 12.04716068 -2.50556692 12.04716068 -4.4375 9.3125 C-4.6875 5.75 -4.6875 5.75 -4.4375 2.3125 C-2.4375 0.3125 -2.4375 0.3125 0 0 Z " fill="#161616" transform="translate(360.4375,238.6875)"/>
<path d="M0 0 C1 2 1 2 1.3125 5.375 C1.75746584 8.9726597 1.75746584 8.9726597 3.625 11.5 C6.04279076 13.33073943 6.04279076 13.33073943 9.625 12.9375 C13.25516924 12.3249155 13.25516924 12.3249155 15 9 C15 8.01 15 7.02 15 6 C13.02 6 11.04 6 9 6 C9 2 9 2 11 0 C13.5 -0.25 13.5 -0.25 16 0 C18 2 18 2 18.4375 4.5625 C17.82022915 9.41248528 15.51397453 12.87873028 13 17 C12.67 17.66 12.34 18.32 12 19 C6.84354289 18.75445442 4.61812779 17.14177128 1.19921875 13.5703125 C-1.72999429 9.73466546 -1.14748965 5.57217914 -1 1 C-0.67 0.67 -0.34 0.34 0 0 Z " fill="#151515" transform="translate(138,239)"/>
<path d="M0 0 C-1.56020867 0.65134925 -3.12328579 1.29582964 -4.6875 1.9375 C-5.55761719 2.29714844 -6.42773438 2.65679687 -7.32421875 3.02734375 C-12.91328377 5.05898928 -18.42518641 5.27905396 -24.3125 5.5625 C-25.14845703 5.60568359 -25.98441406 5.64886719 -26.84570312 5.69335938 C-28.89696935 5.79885307 -30.9484648 5.89987315 -33 6 C-32.26910156 6.83917969 -32.26910156 6.83917969 -31.5234375 7.6953125 C-28.97531948 11.55015771 -29.45205714 15.53215822 -30 20 C-31.5 23.625 -31.5 23.625 -33 26 C-33.66 25.67 -34.32 25.34 -35 25 C-34.67773438 24.44183594 -34.35546875 23.88367188 -34.0234375 23.30859375 C-32.25113089 19.31075709 -32.45136576 15.28490289 -33 11 C-34.93137046 7.29176872 -36.25750921 6.29699632 -40.125 4.75 C-44.7382163 3.85711943 -49.31806054 3.35797525 -54 3 C-54 2.67 -54 2.34 -54 2 C-49.64505134 1.03223363 -46.43146339 0.99375111 -42.0625 1.9375 C-29.11118791 4.52776242 -10.60935494 -3.53645165 0 0 Z " fill="#4B4B4B" transform="translate(330,320)"/>
<path d="M0 0 C-0.33 6.6 -0.66 13.2 -1 20 C-1.66 20 -2.32 20 -3 20 C-3.32871094 19.03900391 -3.32871094 19.03900391 -3.6640625 18.05859375 C-5.66264636 12.60717192 -7.77125595 8.55237011 -11.828125 4.375 C-13 3 -13 3 -13 1 C-11.02087544 0.83283412 -9.04169915 0.66628044 -7.0625 0.5 C-5.40927734 0.36078125 -5.40927734 0.36078125 -3.72265625 0.21875 C-1 0 -1 0 0 0 Z " fill="#F8F8F8" transform="translate(310,226)"/>
<path d="M0 0 C0.66 0 1.32 0 2 0 C1.835 0.86625 1.67 1.7325 1.5 2.625 C-0.08065322 14.25577669 0.24670843 24.39820616 7.25 34.125 C7.8275 34.74375 8.405 35.3625 9 36 C8.67 36.66 8.34 37.32 8 38 C1.19753168 29.88238781 -1.8741383 21.53030681 -4.09375 11.25 C-4.8113357 8.83269533 -4.8113357 8.83269533 -7.09375 7.6875 C-7.7228125 7.460625 -8.351875 7.23375 -9 7 C-9 6.34 -9 5.68 -9 5 C-8.43410156 4.80664062 -7.86820313 4.61328125 -7.28515625 4.4140625 C-6.55167969 4.15367187 -5.81820312 3.89328125 -5.0625 3.625 C-3.96615234 3.24214844 -3.96615234 3.24214844 -2.84765625 2.8515625 C-0.81317884 2.14728587 -0.81317884 2.14728587 0 0 Z " fill="#171717" transform="translate(156,270)"/>
<path d="M0 0 C5.78322647 0.94420024 8.9723784 3.0076537 12.671875 7.58203125 C15.08205373 11.96997429 14.92405731 16.1727246 14 21 C11.68018324 25.90730469 8.75046632 28.4420566 4 31 C-0.54863817 32.51924515 -5.26553093 33.28982964 -10 34 C-10.495 32.515 -10.495 32.515 -11 31 C-10.67 30.34 -10.34 29.68 -10 29 C-7.94399931 28.7941058 -5.87789328 28.68567822 -3.8125 28.625 C1.78971894 28.27486132 4.91103008 27.86794452 9 24 C11.73185169 19.54527321 11.64289509 15.0772228 11 10 C8.97315924 6.03077017 6.77197491 4.74209314 2.75 3.1875 C0.89375 2.5996875 0.89375 2.5996875 -1 2 C-0.67 1.34 -0.34 0.68 0 0 Z " fill="#383838" transform="translate(286,152)"/>
<path d="M0 0 C0.82757813 0.42925781 0.82757813 0.42925781 1.671875 0.8671875 C4.15905289 2.07739151 6.67747753 3.1095306 9.25 4.125 C10.14203125 4.47820312 11.0340625 4.83140625 11.953125 5.1953125 C12.62859375 5.46085938 13.3040625 5.72640625 14 6 C14 6.33 14 6.66 14 7 C12.89591797 6.93039063 12.89591797 6.93039063 11.76953125 6.859375 C5.55331566 6.51389312 5.55331566 6.51389312 0 8.9375 C-0.66 9.618125 -1.32 10.29875 -2 11 C-6.35737575 12.45245858 -10.45069477 12.63577247 -15 12 C-18.32966378 10.33516811 -20.5317626 8.23748457 -21.875 4.6875 C-21.91625 4.130625 -21.9575 3.57375 -22 3 C-21.236875 3.825 -20.47375 4.65 -19.6875 5.5 C-15.9068566 8.67610138 -12.36018587 8.52224298 -7.5859375 8.46875 C-4.60321385 7.92807502 -3.17861466 7.08410854 -1 5 C-0.1957792 2.40144267 -0.1957792 2.40144267 0 0 Z " fill="#1A1A1A" transform="translate(292,200)"/>
<path d="M0 0 C2 2 2 2 2.25 5.5 C2 9 2 9 0 11 C-3.5 11.3125 -3.5 11.3125 -7 11 C-9.15502531 7.76746204 -9.46856135 6.74849077 -9 3 C-6.73157826 -0.65467947 -4.03373275 -0.4291205 0 0 Z " fill="#101010" transform="translate(286,161)"/>
<path d="M0 0 C2.9375 0.8125 2.9375 0.8125 4.9375 2.8125 C4.6875 6.375 4.6875 6.375 3.9375 9.8125 C1.17499964 11.19375018 -1.00981099 11.00329306 -4.0625 10.8125 C-6.0625 8.8125 -6.0625 8.8125 -6.375 5.875 C-6.0625 2.8125 -6.0625 2.8125 -4.9375 0.875 C-3.0625 -0.1875 -3.0625 -0.1875 0 0 Z " fill="#0D0D0D" transform="translate(230.0625,161.1875)"/>
<path d="M0 0 C0.75 1.625 0.75 1.625 1 4 C-1.79064389 9.06450187 -4.50322511 12.1677417 -10 14 C-14.97710918 14.49771092 -17.83273864 14.50481476 -22 11.625 C-22.99 10.75875 -23.98 9.8925 -25 9 C-25 8.34 -25 7.68 -25 7 C-25.99 6.67 -26.98 6.34 -28 6 C-25.75 5.25 -25.75 5.25 -23 5 C-22.1646875 5.9590625 -22.1646875 5.9590625 -21.3125 6.9375 C-18.09457609 9.80754024 -15.66495193 9.50780708 -11.47265625 9.31640625 C-8.03766096 8.87685709 -5.80044353 8.04910502 -3 6 C-1.09793151 2.94960779 -1.09793151 2.94960779 0 0 Z " fill="#212121" transform="translate(243,197)"/>
<path d="M0 0 C3.25696479 0.41755959 4.63443291 0.63443291 7 3 C6.8125 6.5 6.8125 6.5 6 10 C2.48746854 12.34168764 1.13530644 12.49623677 -3 12 C-5.875 10.125 -5.875 10.125 -8 8 C-8 7.34 -8 6.68 -8 6 C-5.69 6 -3.38 6 -1 6 C-0.34 4.68 0.32 3.36 1 2 C0.34 1.67 -0.32 1.34 -1 1 C-0.67 0.67 -0.34 0.34 0 0 Z " fill="#151515" transform="translate(326,274)"/>
<path d="M0 0 C1.1446875 0.3403125 1.1446875 0.3403125 2.3125 0.6875 C1.3225 1.1825 1.3225 1.1825 0.3125 1.6875 C0.9725 3.0075 1.6325 4.3275 2.3125 5.6875 C5.7775 5.1925 5.7775 5.1925 9.3125 4.6875 C7.85850704 8.52075416 6.0044885 9.97029605 2.3125 11.6875 C-0.59299286 12.10257041 -1.99974952 12.11437961 -4.5 10.5625 C-6.23948782 7.81594028 -6.08519128 5.86903026 -5.6875 2.6875 C-3.95592109 -0.1377077 -3.32136449 -0.38620517 0 0 Z " fill="#131414" transform="translate(181.6875,274.3125)"/>
<path d="M0 0 C0.66 0.33 1.32 0.66 2 1 C1.175 1.78375 0.35 2.5675 -0.5 3.375 C-3.51030502 6.97539322 -3.60966459 10.08853737 -3.35546875 14.6640625 C-2.88187286 17.77626404 -2.08252968 19.63022485 0 22 C3.80024882 24.71637503 6.6746624 25.43267376 11.3125 25.6875 C12.91544922 25.78611328 12.91544922 25.78611328 14.55078125 25.88671875 C15.35902344 25.92410156 16.16726562 25.96148437 17 26 C17 26.66 17 27.32 17 28 C13.69483007 29.65258496 10.5576664 29.62332667 7 29 C1.24242661 26.46564716 -3.24143541 23.81393676 -6 18 C-6.88841748 12.94962675 -6.55035745 9.02733391 -4.125 4.5 C-2 2 -2 2 0 0 Z " fill="#2D2D2D" transform="translate(218,155)"/>
<path d="M0 0 C0.391875 0.61875 0.78375 1.2375 1.1875 1.875 C3.27717491 4.32496368 4.97463327 5.01879998 8 6 C7.67 6.99 7.34 7.98 7 9 C-3.56 9 -14.12 9 -25 9 C-25 7.68 -25 6.36 -25 5 C-23.02 5 -21.04 5 -19 5 C-19 5.33 -19 5.66 -19 6 C-12.07 6 -5.14 6 2 6 C1.34 5.01 0.68 4.02 0 3 C0 2.01 0 1.02 0 0 Z " fill="#6D6D6D" transform="translate(309,300)"/>
<path d="M0 0 C2 0 2 0 3.54296875 1.35546875 C7.96402968 6.28059364 7.96402968 6.28059364 8.125 9.5 C6.91143632 12.19680818 5.45209087 14.69056726 3.921875 17.21875 C2.62073938 19.73280865 2.2726401 22.20543893 2 25 C0 24 0 24 -0.74609375 22.07421875 C-0.97425781 21.28660156 -1.20242187 20.49898437 -1.4375 19.6875 C-2.30920803 16.85780164 -2.91594199 15.10807458 -4.75 12.75 C-6 11 -6 11 -6 8.625 C-4.61042432 4.97736383 -2.69772391 2.8293202 0 0 Z M-1.6875 4.5625 C-3.55767572 8.03568348 -2.8760749 10.22613889 -2 14 C-1.04415562 16.33588323 -1.04415562 16.33588323 0 18 C3.23242997 17.27285258 3.23242997 17.27285258 4.75 14.25 C6.08983228 10.76643607 6.30278804 9.44308267 5 6 C3.66621425 4.1645201 3.66621425 4.1645201 2 3 C-0.13871247 2.77353066 -0.13871247 2.77353066 -1.6875 4.5625 Z " fill="#373737" transform="translate(255,140)"/>
<path d="M0 0 C2.5625 0.3125 2.5625 0.3125 4.4375 1.5 C5.5625 3.3125 5.5625 3.3125 5.375 5.875 C4.5625 8.3125 4.5625 8.3125 2.5625 10.3125 C0.0625 10.5625 0.0625 10.5625 -2.4375 10.3125 C-4.4375 8.3125 -4.4375 8.3125 -4.6875 5.3125 C-4.37675292 1.58353509 -3.7821044 0.48488518 0 0 Z " fill="#131313" transform="translate(282.4375,331.6875)"/>
<path d="M0 0 C13.86 0 27.72 0 42 0 C42 0.33 42 0.66 42 1 C31.11 1 20.22 1 9 1 C9.99 1.99 10.98 2.98 12 4 C12.1875 7.1875 12.1875 7.1875 12 10 C10.53515625 8.73046875 9.0703125 7.4609375 7.60546875 6.19140625 C5.89287029 4.79128769 5.89287029 4.79128769 3 4 C3 3.34 3 2.68 3 2 C2.01 2 1.02 2 0 2 C0 1.34 0 0.68 0 0 Z " fill="#C6C6C6" transform="translate(180,190)"/>
<path d="M0 0 C2.5 0.25 2.5 0.25 4.5 2.25 C4.86796448 5.12012296 4.87509409 6.65774618 3.3125 9.125 C1.5 10.25 1.5 10.25 -1.125 10 C-3.5 9.25 -3.5 9.25 -4.5 8.25 C-4.6875 5.3125 -4.6875 5.3125 -4.5 2.25 C-2.5 0.25 -2.5 0.25 0 0 Z " fill="#0E0E0E" transform="translate(229.5,331.75)"/>
<path d="M0 0 C6.875 3.75 6.875 3.75 8 6 C5.525 5.01 5.525 5.01 3 4 C3.061875 5.9490625 3.061875 5.9490625 3.125 7.9375 C3.14055052 12.83591302 2.2492718 17.28176811 1 22 C0.67 22 0.34 22 0 22 C-1.2003299 15.54822678 -2.98206452 5.96412904 0 0 Z " fill="#1A1A1A" transform="translate(255,307)"/>
<path d="M0 0 C-2.475 1.485 -2.475 1.485 -5 3 C7.87 3.495 7.87 3.495 21 4 C21 4.33 21 4.66 21 5 C10.3051534 5.96288008 -0.27132003 6.10947633 -11 6 C-10.67 4.35 -10.34 2.7 -10 1 C-8.71073008 0.63720544 -7.41846728 0.28503302 -6.125 -0.0625 C-5.40570313 -0.25972656 -4.68640625 -0.45695312 -3.9453125 -0.66015625 C-2 -1 -2 -1 0 0 Z " fill="#606060" transform="translate(189,303)"/>
<path d="M0 0 C0 0.66 0 1.32 0 2 C-1.98260426 3.68732277 -3.9832342 5.35366057 -6 7 C-7.8680999 10.73619981 -7.54372628 14.93142747 -7 19 C-5.1645432 22.97545128 -2.11862899 25.14114839 1.8125 26.875 C2.864375 27.24625 3.91625 27.6175 5 28 C2 29 2 29 -0.875 27.9375 C-4.99015064 25.3861066 -7.80448905 22.3910219 -10 18 C-10.57425085 13.29302583 -10.45554552 9.87855208 -8.25 5.625 C-3.42857143 0 -3.42857143 0 0 0 Z " fill="#2D2D2D" transform="translate(222,322)"/>
<path d="M0 0 C1.12664062 -0.00257813 2.25328125 -0.00515625 3.4140625 -0.0078125 C6.375 0.125 6.375 0.125 9.375 1.125 C9.375 1.785 9.375 2.445 9.375 3.125 C6.0146884 4.14034595 2.93913714 4.25883137 -0.5625 4.25 C-1.58214844 4.25257813 -2.60179687 4.25515625 -3.65234375 4.2578125 C-6.42088725 4.13411936 -8.93039535 3.75026738 -11.625 3.125 C-11.625 2.465 -11.625 1.805 -11.625 1.125 C-7.69643808 0.19803595 -4.03220774 -0.00926944 0 0 Z " fill="#1E1E1E" transform="translate(380.625,256.875)"/>
<path d="M0 0 C-0.99 0.495 -0.99 0.495 -2 1 C-2.04125 2.258125 -2.0825 3.51625 -2.125 4.8125 C-2.14820313 5.52019531 -2.17140625 6.22789062 -2.1953125 6.95703125 C-2.13254462 9.31359719 -2.13254462 9.31359719 0 12 C-0.99 12 -1.98 12 -3 12 C-3.99 9.03 -4.98 6.06 -6 3 C-8.29174077 6.43761116 -8.29524047 7.92071615 -8.4140625 11.98046875 C-8.45273437 13.14384766 -8.49140625 14.30722656 -8.53125 15.50585938 C-8.5621875 16.72080078 -8.593125 17.93574219 -8.625 19.1875 C-8.66367187 20.41404297 -8.70234375 21.64058594 -8.7421875 22.90429688 C-8.83656103 25.93604656 -8.92214549 28.96778841 -9 32 C-9.33 32 -9.66 32 -10 32 C-10.11629782 27.60438961 -10.18728634 23.20917571 -10.25 18.8125 C-10.28351563 17.56662109 -10.31703125 16.32074219 -10.3515625 15.03710938 C-10.36445313 13.83505859 -10.37734375 12.63300781 -10.390625 11.39453125 C-10.41157227 10.28956299 -10.43251953 9.18459473 -10.45410156 8.04614258 C-9.8967209 4.30719716 -8.6060942 2.68333199 -6 0 C-3.50907189 -1.24546405 -2.58919267 -0.7767578 0 0 Z " fill="#353535" transform="translate(319,268)"/>
<path d="M0 0 C0 0.66 0 1.32 0 2 C-14.75409836 4.62295082 -14.75409836 4.62295082 -20 2 C-20 1.34 -20 0.68 -20 0 C-14.58170067 -2.70914967 -5.73625864 -1.27472414 0 0 Z " fill="#191919" transform="translate(142,258)"/>
<path d="M0 0 C1.2065625 0.0309375 1.2065625 0.0309375 2.4375 0.0625 C3.0625 2.4375 3.0625 2.4375 3.4375 5.0625 C1.4375 7.0625 1.4375 7.0625 -2.4375 7.375 C-6.01810962 7.30338781 -7.96041402 6.66458598 -10.5625 4.0625 C-9.428125 3.588125 -8.29375 3.11375 -7.125 2.625 C-1.2071281 0.02944215 -1.2071281 0.02944215 0 0 Z " fill="#0D0D0D" transform="translate(326.5625,209.9375)"/>
<path d="M0 0 C4.17645661 -0.34803805 5.82586157 0.33781938 9 3 C10.31836295 3.69580267 11.64791086 4.37224433 13 5 C8.88581814 6.99475484 5.55244646 7.34358086 1 7 C0.34 6.34 -0.32 5.68 -1 5 C-0.625 2.375 -0.625 2.375 0 0 Z " fill="#0F0F0F" transform="translate(176,210)"/>
<path d="M0 0 C0.66 0.33 1.32 0.66 2 1 C3.0690003 4.20700089 3.13332529 6.56992069 3.125 9.9375 C3.12757813 10.97777344 3.13015625 12.01804688 3.1328125 13.08984375 C3.01932023 15.57665971 2.71928571 17.63092407 2 20 C1.34 20 0.68 20 0 20 C-1.06375135 16.80874596 -1.13335484 14.47529029 -1.125 11.125 C-1.12757813 10.09632813 -1.13015625 9.06765625 -1.1328125 8.0078125 C-1.00995061 5.225352 -0.62944236 2.70760126 0 0 Z " fill="#191919" transform="translate(255,171)"/>
<path d="M0 0 C0 3.80345877 -1.13786331 4.77701015 -3.5 7.6875 C-4.1496875 8.49574219 -4.799375 9.30398437 -5.46875 10.13671875 C-5.9740625 10.75160156 -6.479375 11.36648437 -7 12 C-2.39257135 10.78955868 -2.39257135 10.78955868 2 9 C0.71480435 11.86697492 -0.57129254 13.97607712 -3 16 C-3.66 16 -4.32 16 -5 16 C-5 15.34 -5 14.68 -5 14 C-6.6396875 14.928125 -6.6396875 14.928125 -8.3125 15.875 C-8.92738281 16.22304687 -9.54226562 16.57109375 -10.17578125 16.9296875 C-11.81982289 17.89428581 -13.41400588 18.94267059 -15 20 C-13.6300094 17.02879676 -12.03719635 14.63345438 -9.9609375 12.109375 C-9.38085938 11.40039062 -8.80078125 10.69140625 -8.203125 9.9609375 C-7.59984375 9.23132813 -6.9965625 8.50171875 -6.375 7.75 C-5.76398438 7.00492188 -5.15296875 6.25984375 -4.5234375 5.4921875 C-3.0189924 3.65864503 -1.51110107 1.82805754 0 0 Z " fill="#6E6E6E" transform="translate(233,230)"/>
<path d="M0 0 C0.99 0 1.98 0 3 0 C3.08149592 3.02138567 3.14073421 6.04053905 3.1875 9.0625 C3.22520508 10.33383789 3.22520508 10.33383789 3.26367188 11.63085938 C3.32846972 17.2250736 2.57466587 21.01960959 0 26 C-0.66 25.67 -1.32 25.34 -2 25 C-1.67386719 24.51789063 -1.34773437 24.03578125 -1.01171875 23.5390625 C0.46763808 19.82639093 0.25056984 16.33180271 0.1875 12.375 C0.1865332 11.21097656 0.1865332 11.21097656 0.18554688 10.0234375 C0.24570025 5.87859127 0.24570025 5.87859127 -1 2 C-0.67 1.34 -0.34 0.68 0 0 Z " fill="#707070" transform="translate(191,276)"/>
<path d="M0 0 C2.43874429 1.08388635 4.25285366 2.21185036 6.3125 3.9375 C13.66053774 9.57669175 19.97383459 9.36647589 29 9 C28.67 9.66 28.34 10.32 28 11 C21.58721209 13.13759597 16.528673 11.86126101 10.51171875 9.28125 C6.68287898 7.32812489 3.08320515 5.01430671 0 2 C0 1.34 0 0.68 0 0 Z " fill="#4A4A4A" transform="translate(165,308)"/>
<path d="M0 0 C0.66 0 1.32 0 2 0 C2 3.63 2 7.26 2 11 C-2.40767604 12.10191901 -3.8922935 11.58706842 -8 10 C-7.4225 9.5875 -6.845 9.175 -6.25 8.75 C-3.94739596 6.95908575 -1.92205035 5.19662897 0 3 C0 2.01 0 1.02 0 0 Z " fill="#E1E1E1" transform="translate(189,244)"/>
<path d="M0 0 C0.66 0 1.32 0 2 0 C3.32 2.64 4.64 5.28 6 8 C5.01 8.99 4.02 9.98 3 11 C2.34 8.36 1.68 5.72 1 3 C0.9175 3.78375 0.835 4.5675 0.75 5.375 C0 8 0 8 -1.875 9.3125 C-4 10 -4 10 -7 10 C-6.21625 9.0925 -5.4325 8.185 -4.625 7.25 C-2.69947504 4.94809764 -1.17794259 2.78422793 0 0 Z " fill="#DBDCDC" transform="translate(255,335)"/>
<path d="M0 0 C5.68114528 2.84057264 9.13141717 9.59382466 12 15 C11.01 15.33 10.02 15.66 9 16 C8.68546875 15.38511719 8.3709375 14.77023437 8.046875 14.13671875 C7.61890625 13.32847656 7.1909375 12.52023437 6.75 11.6875 C6.33234375 10.88699219 5.9146875 10.08648437 5.484375 9.26171875 C4.12393715 6.88991382 4.12393715 6.88991382 1.828125 5.45703125 C1.22484375 4.97621094 0.6215625 4.49539063 0 4 C0 2.68 0 1.36 0 0 Z " fill="#272727" transform="translate(345,258)"/>
<path d="M0 0 C3.96 0 7.92 0 12 0 C12.33 0.66 12.66 1.32 13 2 C12.32453125 2.03738281 11.6490625 2.07476562 10.953125 2.11328125 C10.06109375 2.17902344 9.1690625 2.24476563 8.25 2.3125 C7.36828125 2.37050781 6.4865625 2.42851562 5.578125 2.48828125 C2.67696226 3.0641181 1.20774393 4.07596148 -1 6 C-1.66 5.67 -2.32 5.34 -3 5 C-3 4.34 -3 3.68 -3 3 C-2.01 3 -1.02 3 0 3 C0 2.01 0 1.02 0 0 Z " fill="#F1F1F1" transform="translate(283,225)"/>
<path d="M0 0 C0 0.66 0 1.32 0 2 C-5.28 3.32 -10.56 4.64 -16 6 C-16.33 5.01 -16.66 4.02 -17 3 C-14.54212344 2.49766027 -12.08374976 1.99803143 -9.625 1.5 C-8.57699219 1.28537109 -8.57699219 1.28537109 -7.5078125 1.06640625 C-2.2265625 0 -2.2265625 0 0 0 Z " fill="#272727" transform="translate(166,257)"/>
<path d="M0 0 C-0.99 1.485 -0.99 1.485 -2 3 C-2 2.34 -2 1.68 -2 1 C-3.32 1 -4.64 1 -6 1 C-5.34 2.32 -4.68 3.64 -4 5 C-5.8125 6.0625 -5.8125 6.0625 -8 7 C-8.99 6.67 -9.98 6.34 -11 6 C-11 3 -11 3 -10 1.3125 C-6.78628571 -0.7965 -3.78496571 -0.18614585 0 0 Z " fill="#EAEAEA" transform="translate(292,183)"/>
<path d="M0 0 C2.96528179 -0.0562279 5.68850026 0.04316196 8.625 0.3125 C9.42679687 0.37373047 10.22859375 0.43496094 11.0546875 0.49804688 C13.03758124 0.65148508 15.01898519 0.82395693 17 1 C15 3 15 3 11.0859375 3.1953125 C9.51550649 3.18200376 7.94513779 3.15813602 6.375 3.125 C5.57320313 3.11597656 4.77140625 3.10695312 3.9453125 3.09765625 C1.96341477 3.07406223 -0.01832981 3.03819065 -2 3 C-1.34 2.01 -0.68 1.02 0 0 Z " fill="#797979" transform="translate(292,180)"/>
<path d="M0 0 C0.99 0.495 0.99 0.495 2 1 C2 1.66 2 2.32 2 3 C5.01970788 4.56629708 8.08650414 5.87625164 11.25 7.125 C12.14203125 7.47820312 13.0340625 7.83140625 13.953125 8.1953125 C14.62859375 8.46085938 15.3040625 8.72640625 16 9 C16 9.33 16 9.66 16 10 C12.37 10 8.74 10 5 10 C5.66 9.34 6.32 8.68 7 8 C6.030625 7.4225 5.06125 6.845 4.0625 6.25 C1 4 1 4 0.125 1.75 C0.08375 1.1725 0.0425 0.595 0 0 Z " fill="#434343" transform="translate(322,245)"/>
<path d="M0 0 C2.24854363 1.95840897 3.8149038 3.61952447 5.125 6.3125 C4.92371109 10.64021157 1.95240676 13.03047784 -1 16 C-1.99 15.67 -2.98 15.34 -4 15 C-3.67 14.34 -3.34 13.68 -3 13 C-2.34 13 -1.68 13 -1 13 C0.80453646 11.3450486 0.80453646 11.3450486 2 9 C1.82704005 6.46823091 1.82704005 6.46823091 1 4 C0.814375 3.236875 0.62875 2.47375 0.4375 1.6875 C0.293125 1.130625 0.14875 0.57375 0 0 Z " fill="#333333" transform="translate(258,346)"/>
<path d="M0 0 C0.33 0.66 0.66 1.32 1 2 C-1.97 2.66 -4.94 3.32 -8 4 C-8.33 3.34 -8.66 2.68 -9 2 C-9.66 1.67 -10.32 1.34 -11 1 C-6.78915963 -1.80722691 -4.88445782 -0.94537893 0 0 Z " fill="#2A2A2A" transform="translate(280,320)"/>
<path d="M0 0 C0.33 0.99 0.66 1.98 1 3 C0.13375 3.4021875 0.13375 3.4021875 -0.75 3.8125 C-3.0325868 5.01719859 -4.9737942 6.40798115 -7 8 C-7.5534764 5.92446352 -8 4.15634036 -8 2 C-4.94736336 1.01879536 -3.05263664 1.01879536 0 2 C0 1.34 0 0.68 0 0 Z " fill="#D0D0D0" transform="translate(150,256)"/>
<path d="M0 0 C0.33 0.99 0.66 1.98 1 3 C1.66 3 2.32 3 3 3 C3.33 2.01 3.66 1.02 4 0 C3.5253252 4.17713824 3.02054022 6.97945978 0 10 C-2.6875 11.25 -2.6875 11.25 -5 12 C-4.360625 11.13375 -3.72125 10.2675 -3.0625 9.375 C-1.02451704 6.0401188 -0.36566907 3.83952522 0 0 Z " fill="#B4B4B4" transform="translate(254,166)"/>
<path d="M0 0 C-2.475 1.485 -2.475 1.485 -5 3 C-4.34 3.66 -3.68 4.32 -3 5 C-5.64 5.33 -8.28 5.66 -11 6 C-10.67 4.35 -10.34 2.7 -10 1 C-8.71073008 0.63720544 -7.41846728 0.28503302 -6.125 -0.0625 C-5.40570313 -0.25972656 -4.68640625 -0.45695312 -3.9453125 -0.66015625 C-2 -1 -2 -1 0 0 Z " fill="#777878" transform="translate(189,303)"/>
<path d="M0 0 C-1 2 -1 2 -2.9609375 2.8515625 C-4.15589844 3.23441406 -4.15589844 3.23441406 -5.375 3.625 C-6.56222656 4.01558594 -6.56222656 4.01558594 -7.7734375 4.4140625 C-10 5 -10 5 -13 5 C-13 4.34 -13 3.68 -13 3 C-8.44573816 0.33409063 -5.26053037 -0.31563182 0 0 Z " fill="#F4F4F4" transform="translate(229,190)"/>
<path d="M0 0 C0.804375 0.804375 1.60875 1.60875 2.4375 2.4375 C6.26663263 5.68813058 10.1211256 5.88073863 15 6 C15 6.33 15 6.66 15 7 C13.02 7 11.04 7 9 7 C9 7.66 9 8.32 9 9 C4.5937814 7.65365543 2.56922298 5.80625626 0 2 C0 1.34 0 0.68 0 0 Z " fill="#444444" transform="translate(270,203)"/>
<path d="M0 0 C3.3 0 6.6 0 10 0 C10 0.66 10 1.32 10 2 C6.78548731 3.60725635 3.56387464 3.05748185 0 3 C0 2.01 0 1.02 0 0 Z " fill="#434444" transform="translate(225,181)"/>
<path d="M0 0 C1.98 1.65 3.96 3.3 6 5 C5.49701212 9.40114397 3.91227269 11.71195019 1 15 C1.144375 14.443125 1.28875 13.88625 1.4375 13.3125 C1.623125 12.549375 1.80875 11.78625 2 11 C2.2475 10.175 2.495 9.35 2.75 8.5 C3.2733747 5.91585425 3.2733747 5.91585425 1.5625 3.8125 C0.7890625 2.9153125 0.7890625 2.9153125 0 2 C0 1.34 0 0.68 0 0 Z " fill="#282828" transform="translate(257,142)"/>
<path d="M0 0 C3 3.75 3 3.75 3 6 C3.99 5.67 4.98 5.34 6 5 C5.67 7.64 5.34 10.28 5 13 C3 12 3 12 2.1484375 10.0390625 C1.89320313 9.24242187 1.63796875 8.44578125 1.375 7.625 C1.11460937 6.83351562 0.85421875 6.04203125 0.5859375 5.2265625 C0 3 0 3 0 0 Z " fill="#585858" transform="translate(252,152)"/>
<path d="M0 0 C0.66 0 1.32 0 2 0 C2 1.98 2 3.96 2 6 C-0.31 6.33 -2.62 6.66 -5 7 C-4.21654285 5.82780457 -3.42297164 4.66236332 -2.625 3.5 C-2.18414062 2.8503125 -1.74328125 2.200625 -1.2890625 1.53125 C-0.65097656 0.77328125 -0.65097656 0.77328125 0 0 Z " fill="#F6F6F6" transform="translate(230,236)"/>
<path d="M0 0 C1.32 0.33 2.64 0.66 4 1 C2.68 3.97 1.36 6.94 0 10 C-0.66 10 -1.32 10 -2 10 C-2.33 8.68 -2.66 7.36 -3 6 C-2.34 5.67 -1.68 5.34 -1 5 C-0.34444881 2.47266765 -0.34444881 2.47266765 0 0 Z " fill="#E3E3E4" transform="translate(257,159)"/>
<path d="M0 0 C0.66 0.33 1.32 0.66 2 1 C2.59355614 3.64860427 2.74209269 6.29197322 3 9 C2.34 8.67 1.68 8.34 1 8 C0.01 8.99 -0.98 9.98 -2 11 C-1.34 7.37 -0.68 3.74 0 0 Z " fill="#555656" transform="translate(255,337)"/>
<path d="M0 0 C0.99 0.33 1.98 0.66 3 1 C-1.75 6.75 -1.75 6.75 -4 9 C-4 4.31908701 -3.00354129 3.37898396 0 0 Z " fill="#292929" transform="translate(162,262)"/>
<path d="M0 0 C2.1640625 0.0234375 2.1640625 0.0234375 4.625 0.375 C5.85089844 0.54128906 5.85089844 0.54128906 7.1015625 0.7109375 C7.72804688 0.80632812 8.35453125 0.90171875 9 1 C9 1.99 9 2.98 9 4 C5.37 3.34 1.74 2.68 -2 2 C-1.34 1.34 -0.68 0.68 0 0 Z " fill="#252525" transform="translate(350,258)"/>
<path d="M0 0 C1 2 1 2 0.9375 3.9375 C-0.49252493 7.08355485 -2.92626518 7.69202774 -6 9 C-4.47291037 5.56404834 -2.40072955 2.88087546 0 0 Z " fill="#898989" transform="translate(255,202)"/>
<path d="M0 0 C0.99 0 1.98 0 3 0 C3 2.64 3 5.28 3 8 C2.01 8.495 2.01 8.495 1 9 C0.3485953 5.90582767 0 3.15153624 0 0 Z " fill="#F3F3F4" transform="translate(341,212)"/>
<path d="M0 0 C0.66 0 1.32 0 2 0 C4 6.625 4 6.625 4 10 C1.2027092 7.93243723 0.97307727 6.85559629 0.3125 3.3125 C0.209375 2.219375 0.10625 1.12625 0 0 Z " fill="#5B5C5C" transform="translate(314,271)"/>
<path d="M0 0 C0.66 0.66 1.32 1.32 2 2 C1.625 4.625 1.625 4.625 1 7 C-0.32 6.34 -1.64 5.68 -3 5 C-2.01 4.67 -1.02 4.34 0 4 C-0.66 3.34 -1.32 2.68 -2 2 C-1.34 1.34 -0.68 0.68 0 0 Z " fill="#636464" transform="translate(320,261)"/>
<path d="M0 0 C0.33 0 0.66 0 1 0 C1 2.64 1 5.28 1 8 C0.34 8 -0.32 8 -1 8 C-1.625 5.125 -1.625 5.125 -2 2 C-1.34 1.34 -0.68 0.68 0 0 Z " fill="#E7E7E8" transform="translate(308,238)"/>
<path d="M0 0 C0.99 0.33 1.98 0.66 3 1 C1.68 3.31 0.36 5.62 -1 8 C-1.66 7.67 -2.32 7.34 -3 7 C-2.690625 6.401875 -2.38125 5.80375 -2.0625 5.1875 C-0.89790296 2.91043228 -0.89790296 2.91043228 0 0 Z " fill="#A5A5A6" transform="translate(269,196)"/>
</svg>
